<svg xmlns="http://www.w3.org/2000/svg" viewBox="0 0 34 34"><defs><style>.cls-1{fill:#cecece;}.cls-1,.cls-2,.cls-5,.cls-6{fill-rule:evenodd;}.cls-2{fill:#4184f3;}.cls-3{fill:#d8d9da;}.cls-4{fill:none;}.cls-5{fill:#9fc1f9;}.cls-6,.cls-7{fill:#c1c2c5;}.cls-8{fill:#f3b300;}</style></defs><title>ic_near_transit_34px</title><g id="Layer_2" data-name="Layer 2"><g id="Layer_1-2" data-name="Layer 1"><path class="cls-1" d="M21.83,23.87a2,2,0,1,1,1.93-2A1.94,1.94,0,0,1,21.83,23.87ZM10.24,16H23.76V10.13H10.24Zm1.93,7.85a2,2,0,1,1,1.93-2A1.94,1.94,0,0,1,12.17,23.87ZM17,4.25c-5.31,0-10.62.67-10.62,5.37V22.37A4.68,4.68,0,0,0,11,27.07l-2,2v.67h3l2.66-2.68h5l2.66,2.68H25v-.67l-2-2a4.68,4.68,0,0,0,4.65-4.7V9.62C27.62,4.92,22.87,4.25,17,4.25Z"/><path class="cls-2" d="M10.24,16H23.76V10.13H10.24ZM17,4.25c-5.31,0-10.62.67-10.62,5.37V22.37A4.68,4.68,0,0,0,11,27.07H23a4.68,4.68,0,0,0,4.65-4.7V9.62C27.62,4.92,22.87,4.25,17,4.25Z"/><rect class="cls-3" x="10.24" y="10.13" width="13.52" height="5.88"/><rect class="cls-4" width="34" height="34"/><path class="cls-5" d="M9,17"/><polygon class="cls-6" points="10.24 16.02 23.76 16.02 23.76 10.13 23.69 10.13 10.24 16.02"/><path class="cls-5" d="M10,16"/><line class="cls-7" x1="10" y1="16" x2="24" y2="10"/><ellipse class="cls-8" cx="12.17" cy="21.9" rx="1.93" ry="1.96"/><ellipse class="cls-8" cx="21.83" cy="21.9" rx="1.93" ry="1.96"/></g></g></svg>