<?xml version="1.0" encoding="utf-8"?>
<!-- Generator: Adobe Illustrator 23.0.5, SVG Export Plug-In . SVG Version: 6.00 Build 0)  -->
<svg version="1.1" id="Layer_1" xmlns="http://www.w3.org/2000/svg" xmlns:xlink="http://www.w3.org/1999/xlink" x="0px" y="0px"
	 viewBox="0 0 1255 344" style="enable-background:new 0 0 1255 344;" xml:space="preserve">
<style type="text/css">
	.st0{fill:#E8E8E8;}
	.st1{fill:#161616;}
	.st2{fill:#3F3F3F;}
	.st3{fill:#2D2D2D;}
	.st4{fill:#727272;}
	.st5{fill:#494949;}
	.st6{fill:#FFFFFF;}
	.st7{opacity:9.000000e-02;fill:#606060;enable-background:new    ;}
	.st8{opacity:8.000000e-02;fill:#606060;enable-background:new    ;}
	.st9{fill:#9E9E9E;}
	.st10{opacity:0.1;fill:#606060;enable-background:new    ;}
	.st11{opacity:0.11;fill:#606060;enable-background:new    ;}
	.st12{fill:#37373A;}
	.st13{opacity:0.12;fill:#606060;enable-background:new    ;}
	.st14{opacity:0.14;fill:#606060;enable-background:new    ;}
	.st15{opacity:7.000000e-02;fill:#606060;enable-background:new    ;}
</style>
<g id="background">
	<g>
		<g>
			<path class="st0" d="M22,279.4c60.6-9.8,129.4-8.5,193-3.7c67.2,5.1,132,14.1,199.8,18.3c37.6,2.3,76,3.1,113.8,1
				c1.7-0.1,1-1-0.7-0.9c-70.3,3.9-140.6-2.4-207.9-9.2c-64.4-6.6-129.5-13.9-197.2-13.7c-35.1,0.1-70,2.3-102.2,7.5
				C19.1,278.9,20.4,279.7,22,279.4L22,279.4z"/>
		</g>
	</g>
	<g>
		<g>
			<path class="st0" d="M361.5,287.6c82.2,0.6,161.7-7.6,242-12.5c23.5-1.4,47.1-2.6,70.9-3.1c1.7,0,1.7-1,0-0.9
				c-82.3,2-161.5,10.8-243.2,14.3c-23.1,1-46.4,1.5-69.7,1.4C359.7,286.6,359.7,287.6,361.5,287.6L361.5,287.6z"/>
		</g>
	</g>
	<g>
		<g>
			<path class="st0" d="M745.5,277c29.2-2.3,59.5-2.6,89.1-1c27.2,1.5,53.3,4.8,79,8.2c25.4,3.4,50.6,7,76.9,9.5
				c27.2,2.5,54.9,3.1,83,3.1c33.1,0,66.6-0.5,99.1,2.2c1.7,0.1,2.4-0.8,0.7-0.9c-57.5-4.7-117.1,0.1-174.5-4.7
				c-53.6-4.4-102.7-14.3-156.9-17.9c-32.1-2.1-65.1-1.9-96.9,0.6C743.2,276.2,743.9,277.1,745.5,277L745.5,277z"/>
		</g>
	</g>
	<g>
		<g>
			<path class="st0" d="M269.1,155.8c-7.5-0.8-22.2-3.1-16.7-6.8c3.9-2.7,15.6-2.9,22.9-2.8c24.4,0.3,48.8,1,73.3,0.3
				c22.9-0.7,44.8-3.1,67.2-4.9c22.7-2,46.7-3.4,69.5-1c10,1,19.4,2.8,29.2,4c4.7,0.6,9.6,1,14.6,1.2c5.9,0.2,11.9-0.1,17.7-0.2
				c6-0.1,12.2,0,17.4,1.3c4.7,1.2,8.6,3.4,5.6,5.4c-4.4,3-17.1,2.1-24.4,1.6c-21.7-1.6-43.6-2.1-65.7-1.1
				c-11.7,0.6-23.1,1.6-34.3,2.9c-12,1.4-23.7,2.6-36.5,2c-11.9-0.6-23.4-2-35.5-2.1c-12.1-0.2-24.2,0.4-36.1,0.9
				c-23.2,1.1-48,2.6-69.7-1.5c-1.5-0.3-2.8,0.5-1.3,0.8c20.3,3.8,43.3,2.9,65.2,1.9c11.5-0.6,23.1-1.2,34.8-1.3
				c12.8-0.1,24.8,1,37.2,1.9c12.7,0.9,24.2,0.4,36.6-1c12.3-1.4,24.4-2.7,37.2-3.4c13.2-0.7,26.5-0.9,39.8-0.6
				c11.8,0.3,23,1.4,34.6,1.9c6.9,0.3,15.7,0.2,20-2.1c4.9-2.7-0.3-5.8-7.1-7.3c-10.2-2.2-22.9-0.7-33.9-0.9
				c-12.2-0.3-23.5-2.3-34.7-3.9c-23.4-3.3-47.3-2.9-71.4-1c-25.6,2-50.4,4.9-76.6,5.7c-15.1,0.4-30.4,0.3-45.4,0.1
				c-7.9-0.1-15.8-0.3-23.6-0.4c-4.9-0.1-9.7-0.1-14.5,0.3c-7.4,0.5-15.9,2.1-15.4,5.3c0.6,3.5,11.8,5.1,19.6,6
				C270,156.9,270.7,156,269.1,155.8L269.1,155.8z"/>
		</g>
	</g>
	<g>
		<g>
			<path class="st0" d="M912.8,39.5c-7.5-0.4-19.8-1.4-22-4.4c-3.1-4.3,13.8-5.6,22-6.2c24-1.5,48.6-0.1,72.7-0.1
				c47.9,0,95.1-3.3,142.7-4.5c23.8-0.6,47.8-0.7,71.5,0.4c5.4,0.3,11.1,0.4,16.3,1c2.2,0.2,4.6,0.6,6.3,1.2c4,1.4,0.1,2.7-3.6,3.4
				c-9.4,1.8-20.1,2.5-30.7,2.7c-21.1,0.3-42.1-1.2-63.2-0.9c-9.9,0.1-19.5,0.7-28.9,2c-10.9,1.5-21,3.5-32,4.9
				c-12.7,1.6-26.2,2.4-39.7,2.4c-13.7,0-27.2-0.8-40.7-1.3c-27.4-1.1-54.9-1.1-82.2,0.2c-1.7,0.1-1.7,1,0,0.9
				c26.7-1.3,53.7-1.4,80.5-0.3c13.3,0.5,26.5,1.3,39.9,1.4c12.4,0.1,24.9-0.5,36.8-1.7c12.2-1.3,23.4-3.4,35.2-5.1
				c11.4-1.6,23.2-2.4,35.4-2.4c22.5-0.1,45.1,1.8,67.6,0.7c5.5-0.3,10.8-0.7,16-1.4c4-0.5,9.4-1.2,12.3-2.4c5.4-2.4-2.4-4.4-8.3-5
				c-11.5-1.2-24.5-1.5-36.5-1.7c-13-0.3-26-0.3-39,0c-52.6,0.9-104.6,4.9-157.4,4.8c-15,0-30-0.5-45-0.5c-12.7,0-27.3,0.1-39.3,1.9
				c-7.5,1.1-14.8,3.8-10.6,6.9c3.9,2.9,15,3.9,23,4.4C913.8,40.5,914.5,39.6,912.8,39.5L912.8,39.5z"/>
		</g>
	</g>
	<g>
		<g>
			<path class="st0" d="M69.3,82.5c72.7-11.4,152.5-0.8,219.5,10.7c34.2,5.8,67.9,12.1,103.5,16.7c35,4.5,71.3,7.6,108.2,9.4
				c74.1,3.6,149.9,2,222.7-3.9C799.6,109.2,871.9,98,947.6,91c78.8-7.3,161.1-8.9,241.4-4.2c9.8,0.6,19.5,1.2,29.1,2
				c1.7,0.1,2.4-0.8,0.7-0.9c-78-6-159-6.3-237.2-0.7c-78.2,5.6-151.7,17.1-228.4,24.6c-74.4,7.3-152.1,10.2-229,7.6
				c-38.2-1.3-76.1-4-112.7-8.1c-37.9-4.3-73.4-10.5-109-16.7C238.2,83.3,165.5,71.9,92.6,78.6C84.1,79.4,76,80.4,68,81.7
				C66.5,81.9,67.8,82.8,69.3,82.5L69.3,82.5z"/>
		</g>
	</g>
	<g>
		<g>
			<path class="st0" d="M367.8,71.2C453,88.4,554.4,89.7,649,84.9c107-5.4,210.1-18.2,317.3-23.2c59.7-2.8,120.5-3.1,179.6,1.6
				c1.7,0.1,2.4-0.8,0.7-0.9c-104.4-8.3-211.5-1-313.7,7.6c-100.7,8.5-202.6,18.4-307,16c-54.5-1.3-108.8-6-156.7-15.6
				C367.7,70.1,366.4,70.9,367.8,71.2L367.8,71.2z"/>
		</g>
	</g>
	<g>
		<g>
			<path class="st0" d="M113.3,12.4c73.3-6.3,151.4-3.8,220.5,7.1c33.9,5.3,65.8,12.3,99.1,18c33.6,5.8,68.6,9.8,105.6,11.6
				c42.3,2,85.1,1.7,127.5,0.7c1.7,0,1.7-1,0-0.9c-38.3,0.9-76.9,1.3-115.1-0.2c-38.7-1.5-75.7-5.1-111-11
				C406.3,32,374.6,25,340.8,19.5c-33.1-5.5-68.3-9.1-104.5-10.7C195.1,7.1,153,8,112.6,11.4C111,11.6,111.7,12.5,113.3,12.4
				L113.3,12.4z"/>
		</g>
	</g>
	<g>
		<g>
			<path class="st0" d="M856.5,203.4c-7.7-0.6-20.2-2-20.8-5.4c-0.3-2.1,4.5-3.7,9.7-4.2c6.2-0.7,12.7-0.1,18.8,0.6
				c11,1.2,22.1,2.1,33.6,2.3c10.7,0.2,21.4-0.4,31.7-1.4c11.2-1.1,22.1-2.5,33.1-3.7c11.7-1.2,23.6-1.8,35.8-1.9
				c23.3-0.1,46.3,1.4,69.5,1.7c11.6,0.2,23-0.1,34.5-0.7c12.4-0.7,25-1.7,37.7-1.2c9.1,0.4,23.6,2.6,20.7,6.8
				c-2.6,3.7-17.1,5.8-26,6.8c-44.7,5.2-90.7-3.5-136-1.2c-26.1,1.3-50.7,5.3-77,6.1c-12,0.3-24.4,0.1-35.8-1.5
				c-10.5-1.5-19.9-4.6-31.8-3.8c-1.7,0.1-1,1,0.7,0.9c7.2-0.4,13.4,0.8,19.5,2c4.9,0.9,9.8,1.8,15.1,2.4c10.9,1.2,22.6,1.4,33.9,1
				c24.9-0.9,48.4-4.4,73.1-5.9c27.2-1.6,54,0.7,80.9,2c21.9,1,45.4,1.3,65.9-2c7.9-1.3,18.3-3.3,20.3-6.6c1.8-3-4.5-5.4-11.4-6.6
				c-10.2-1.8-22.5-1.5-33.3-0.9c-13.2,0.6-26,1.6-39.3,1.7c-26,0.2-51.6-1.8-77.5-1.8c-12.4,0-24.7,0.5-36.7,1.6
				c-11.9,1.1-23.6,2.7-35.4,3.9c-14.7,1.4-29.4,1.9-44.4,1c-7.5-0.4-14.6-1.2-21.8-2c-5.4-0.6-11.3-1-16.9-0.6
				c-8.5,0.7-16.1,3.6-12.4,6.8c3.4,3,13.8,4.3,21.8,4.9C857.4,204.5,858.1,203.6,856.5,203.4L856.5,203.4z"/>
		</g>
	</g>
	<g>
		<g>
			<path class="st1" d="M630.1,327.9c32.6-2.8,64.5-6.7,95.3-11.5c16-2.5,31.6-5.4,48.6-6.9c16.3-1.5,33.2-1.9,50.1-1.8
				c19.5,0.2,38.7,1.1,57.9,2.2c1.7,0.1,2.4-0.8,0.7-0.9c-32.7-1.9-66.4-3.4-99.3-1.2c-16.9,1.1-32.4,3.4-48,6
				c-16.3,2.7-32.8,5.1-49.7,7.3c-18.5,2.3-37.2,4.4-56.3,6C627.8,327.1,628.5,328,630.1,327.9L630.1,327.9z"/>
		</g>
	</g>
	<g>
		<g>
			<path class="st1" d="M836.2,308.1c14.7-0.1,29.1-0.9,43.3-2.4c14.4-1.5,28.6-3.6,43.9-3c7.8,0.3,15.4,1,22.9,1.7
				c7.9,0.7,15.6,1.5,23.5,2.2c15.1,1.4,30.1,2.8,45.2,4.2c1.7,0.2,2.4-0.8,0.7-0.9c-15.6-1.5-31.2-2.9-46.8-4.3
				c-14.3-1.3-29-3.1-43.6-3.7c-14.4-0.6-28,1-41.6,2.5c-15.4,1.7-31.1,2.7-47.2,2.8C834.6,307.1,834.6,308.1,836.2,308.1
				L836.2,308.1z"/>
		</g>
	</g>
	<g>
		<g>
			<path class="st1" d="M989,312.9c34.3-2.7,70.3-5.1,105.1-2.2c17.3,1.5,33.5,4.2,49.6,6.8c16.9,2.7,33.9,5.4,50.9,8.1
				c1.6,0.3,2.9-0.6,1.3-0.8c-26.5-4.2-52.8-8.8-79.8-12.5c-26.2-3.6-53.4-4.4-81.1-3.2c-15.7,0.7-31.3,1.8-46.8,3
				C986.6,312.2,987.3,313.1,989,312.9L989,312.9z"/>
		</g>
	</g>
	<g>
		<g>
			<path class="st1" d="M679,338.9c9-0.6,18.1-1.1,27-1.7c9-0.6,18.1-1.3,27.1-1.6c8.4-0.3,16.9,0.2,25.2,0.5
				c9.2,0.3,18.4,0.7,27.6,1c1.7,0.1,1.7-0.9,0-0.9c-9.2-0.3-18.4-0.7-27.6-1c-8.9-0.3-17.9-0.9-26.9-0.4
				c-17.8,0.8-35.5,2.2-53.2,3.3C676.7,338.1,677.4,339,679,338.9L679,338.9z"/>
		</g>
	</g>
</g>
<g id="details">
	<circle class="st2" cx="759.1" cy="220.3" r="3.1"/>
	<circle class="st2" cx="767.4" cy="228.6" r="1.6"/>
	<circle class="st2" cx="941.6" cy="67.8" r="3.8"/>
	<circle class="st2" cx="950.5" cy="73.8" r="2.2"/>
	<circle class="st3" cx="949" cy="71.4" r="3.6"/>
	<circle class="st3" cx="940.4" cy="256.5" r="4.9"/>
	<circle class="st3" cx="762.7" cy="70.9" r="3.1"/>
	<circle class="st3" cx="812.1" cy="283.7" r="3.8"/>
	<g>
		<g>
			<path class="st4" d="M839.6,215.7c-0.5-0.2,0.1-1.1,0.3-1.3c0.3-0.1,1,0,1.3,0.1c0.5,0.2,1,0.5,1.6,0.6c0.6,0.2,1.3,0.2,1.9,0
				c2-1-0.4-4.5,2.5-4.5c1.6,0,2.9,2.4,4.3,0.6c0.5-0.6,0.7-1.4,0.9-2.2c0.2-0.6,0.4-1.3,0.8-1.8c0.5-0.6,2.1-1.2,2.3,0.1
				c0,0.5,0.8,0.5,0.7,0c-0.1-0.9-0.8-1.5-1.7-1.5c-1.1-0.1-1.9,0.7-2.3,1.6c-0.3,0.6-0.5,1.3-0.7,2c-0.1,0.5-0.3,1.3-0.8,1.6
				c-0.4,0.3-0.8,0-1.2-0.2c-1-0.6-2.1-1.1-3.3-0.7c-1.1,0.4-1.5,1.3-1.4,2.4c0,0.3,0.1,0.7,0.1,1c-0.2,1.1-0.9,1.2-1.7,1
				c-0.8-0.2-1.5-0.7-2.3-0.8c-0.9-0.2-1.7,0-2.1,0.9c-0.3,0.7-0.1,1.5,0.6,1.8C839.9,216.6,840.1,215.8,839.6,215.7L839.6,215.7z"
				/>
		</g>
	</g>
	<g>
		<g>
			<path class="st4" d="M852.5,216.9c-0.4-0.6-0.4-1.3,0-1.9c0.6-0.8,1.4-0.7,2.2-0.6c0.6,0.1,1.4,0.2,1.9-0.3
				c0.3-0.4,0.3-0.8,0.4-1.2c0.2-0.6,0.6-1.2,1.1-1.5c1.1-0.8,2.6-0.9,3.7-0.1c0.3,0.2,0.6,0.1,0.6-0.3c0.3-2.4,2.7-4.2,5.1-3.8
				c0.5,0.1,0.7-0.6,0.2-0.7c-2.9-0.5-5.7,1.6-6,4.5c0.2-0.1,0.4-0.2,0.6-0.3c-1-0.8-2.3-1-3.5-0.6c-1.4,0.5-2,1.4-2.6,2.7
				c-0.2,0.6-0.5,1-1.3,0.9c-0.4,0-0.8-0.1-1.2-0.2c-0.6,0-1.1,0.1-1.5,0.5c-0.9,0.8-1.2,2.2-0.5,3.2
				C852.1,217.7,852.8,217.3,852.5,216.9L852.5,216.9z"/>
		</g>
	</g>
	<g>
		<g>
			<path class="st5" d="M865.1,80.2c-0.4-0.4-0.3-0.6,0.3-0.8c0.3-0.4,0.6-0.4,0.9-0.2c0.4,0.1,0.7,0.5,1.1,0.8
				c0.4,0.3,0.7,0.7,1.2,1c0.6,0.3,1.4,0.5,2,0.2c0.8-0.4,0.8-1.2,1.1-1.9c0.7-2,3.3-2.2,4.5-0.5c0.1,0.2,0.5,0.3,0.6,0
				c0.5-1.1,1.1-2.4,2.1-3.1c1.1-0.7,2.9-0.6,3.3,0.8c0.1,0.4,0.9,0.2,0.7-0.2c-0.5-1.3-1.8-1.9-3.2-1.7c-1.9,0.3-2.9,2.2-3.6,3.8
				c0.2,0,0.4,0,0.6,0c-0.9-1.2-2.4-1.9-3.9-1.4c-0.6,0.2-1.2,0.7-1.6,1.2c-0.2,0.3-0.3,0.6-0.4,1c-0.1,0.2-0.1,0.5-0.2,0.7
				c-0.3,0.5-1.2,0.8-1.8,0.4c-1.2-0.7-2.4-2.8-4.1-1.9c-0.9,0.5-1.1,1.8-0.2,2.4C865.2,81.1,865.6,80.4,865.1,80.2L865.1,80.2z"/>
		</g>
	</g>
	<g>
		<g>
			<path class="st5" d="M881.2,80c-0.2-2.5,3-1.7,4.3-1c0.6,0.3,1.4,0.9,2.1,0.4c0.2-0.2,0.3-0.4,0.4-0.7c0.4-0.8,0.6-1.4,1.6-1.7
				c1.5-0.4,3,0.5,4.3,1.3c0.4,0.2,0.8-0.4,0.4-0.6c-1.3-0.8-2.8-1.7-4.4-1.5c-0.5,0.1-1,0.3-1.5,0.6c-0.6,0.5-0.8,1.3-1.4,1.7
				c-0.6,0.4-0.9,0-1.5-0.3c-0.3-0.1-0.6-0.3-1-0.4c-0.6-0.2-1.3-0.3-2-0.2c-1.2,0.3-2.1,1.2-2,2.5C880.5,80.5,881.2,80.5,881.2,80
				L881.2,80z"/>
		</g>
	</g>
	<g>
		<g>
			<path class="st5" d="M953.5,183.4c-1.6-3.6,4.6-5.2,5-1.4c0.1,1.3-0.5,2.6-1.8,3c-1.4,0.4-3-0.6-3.4-2c-0.1-0.5-0.8-0.3-0.7,0.2
				c0.5,1.8,2.5,3,4.3,2.5c1.8-0.5,2.7-2.5,2.3-4.2c-0.4-1.8-2.4-2.7-4.1-2.3c-2.1,0.5-3,2.7-2.2,4.7
				C953,184.3,953.7,183.9,953.5,183.4L953.5,183.4z"/>
		</g>
	</g>
	<g>
		<g>
			<path class="st5" d="M958.1,186.3c-1.3-0.1-1.8-1.9-0.9-2.8c0.8-0.8,2.1-0.7,2.9-0.1c0.8,0.7,1.7,2.6,0.7,3.6
				c-1.2,1.2-2.8-0.8-3.4-1.7c-0.3-0.4-0.9,0-0.6,0.4c0.9,1.3,2.9,3.5,4.5,1.8c1.3-1.3,0.4-3.9-0.9-4.8c-1.3-0.9-3.5-0.6-4.2,0.9
				c-0.7,1.5,0.3,3.3,1.9,3.4C958.6,187.1,958.6,186.4,958.1,186.3L958.1,186.3z"/>
		</g>
	</g>
	<g>
		<g>
			<path class="st5" d="M731.2,154.9c1,0,1.5-0.7,2.2-1.3c1.6-1.5,3.5-0.1,4.6,1.4c1,1.4,2.4,2.3,3.7,0.7c0.6-0.8,0.9-1.9,1.7-2.5
				c1.7-1.1,3.1,1.1,4.1,2.1c1.2,1.1,3.7,1.6,4.2-0.4c0.1-0.5-0.6-0.7-0.7-0.2c-0.3,1.1-1.6,1-2.3,0.6c-0.6-0.3-1-0.9-1.5-1.4
				c-0.7-0.7-1.5-1.5-2.5-1.7c-1.7-0.3-2.5,1.2-3.3,2.5c-0.2,0.3-0.4,0.8-0.8,1c-0.9,0.5-1.5-0.5-2-1.1c-0.6-0.8-1.3-1.6-2.2-2
				c-0.8-0.4-1.7-0.5-2.6-0.1c-0.9,0.4-1.5,1.7-2.6,1.8C730.8,154.2,730.8,154.9,731.2,154.9L731.2,154.9z"/>
		</g>
	</g>
	<g>
		<g>
			<path class="st5" d="M748.7,149.8c1,1.2,2.9,2.9,4.6,1.5c0.4-0.3,0.6-0.8,1-1.2c0.6-0.5,1.4-0.6,2.2-0.3c1.6,0.4,2.5,1.9,3.3,3.2
				c0.1,0.2,0.5,0.3,0.6,0c1.1-2.3,3.9-2.9,6.2-2c0.4,0.2,0.6-0.5,0.2-0.7c-2.5-1-5.8-0.3-7,2.3c0.2,0,0.4,0,0.6,0
				c-1.1-1.7-2.5-3.7-4.9-3.7c-0.8,0-1.6,0.4-2.1,1c-0.6,0.7-1.2,1.3-2.3,1c-0.8-0.2-1.4-1-2-1.7
				C748.9,148.9,748.4,149.4,748.7,149.8L748.7,149.8z"/>
		</g>
	</g>
	<g>
		<g>
			<path class="st4" d="M793.7,175.9c-0.3-0.6-0.7-1.3-1-2c-0.3-0.7-0.2-1,0.2-1.6c0.5-0.8,1.4-1.5,2.4-0.9c0.7,0.4,1.1,1.2,1.3,1.9
				c0.3,1.2,0,3-1.4,3.4c-1.2,0.3-2.7-0.4-2.6-1.7c0-0.5-0.7-0.5-0.7,0c0,1.7,1.6,2.7,3.2,2.5c1.9-0.2,2.7-2.2,2.4-3.9
				c-0.3-1.6-1.8-3.7-3.7-3c-0.9,0.4-1.6,1.3-2,2.2c-0.2,0.5-0.2,0.5,0,1.1c0.4,0.8,0.8,1.6,1.2,2.4
				C793.2,176.7,793.9,176.3,793.7,175.9L793.7,175.9z"/>
		</g>
	</g>
	<g>
		<g>
			<path class="st5" d="M796.4,180.8c-0.9-1.1-2.6-3.3-1.2-4.7c1-1,2.8-0.6,3.6,0.4c0.8,1,1,3-0.3,3.8c-1.1,0.6-2.7,0-2.9-1.3
				c-0.1-0.5-0.8-0.3-0.7,0.2c0.3,1.7,2.4,2.5,3.9,1.8c1.8-0.8,1.9-3.4,0.8-4.8c-1-1.4-3.3-1.9-4.7-0.7c-2,1.7-0.3,4.4,1,5.9
				C796.2,181.7,796.7,181.2,796.4,180.8L796.4,180.8z"/>
		</g>
	</g>
	<g>
		<g>
			<path class="st4" d="M944.1,130.2c0-2.2,3-1.5,4.3-1.4c1.1,0.1,2.1,0,3.1-0.6c1.1-0.6,2-1.5,3.1-2.1c0.7-0.4,1.5-0.8,2.4-0.8
				c0.9,0,1.4,0.5,2.2,0.9c1.8,0.7,2.9-0.9,4.1-2c2.2-2.2,5.4-1.3,8-0.4c0.4,0.1,0.6-0.6,0.2-0.7c-2.3-0.8-5.3-1.7-7.6-0.3
				c-1.1,0.6-1.7,1.8-2.7,2.5c-1.4,1-2.6-0.6-4.1-0.6c-3.2,0-4.9,3.7-8.2,3.5c-1.4-0.1-2.7-0.6-4.1,0c-0.9,0.4-1.4,1.1-1.4,2.1
				C943.3,130.7,944.1,130.7,944.1,130.2L944.1,130.2z"/>
		</g>
	</g>
	<g>
		<g>
			<path class="st4" d="M962.8,129.4c1.6-2.3,4.6-3.4,7.3-2.6c1.2,0.3,2.3,1.3,3.6,1.2c1.1-0.1,1.6-0.9,2.4-1.6
				c1.2-1.1,2.7-1.9,4.3-1.9c1,0,1.8,0.4,2.5,1c0.2,0.2,0.4,0.4,0.8,0.5c0.5,0.1,0.9-0.1,1.4-0.3c0.8-0.3,1.6-0.6,2.4-0.9
				c1.7-0.4,3.4-0.5,5.1-0.3c0.5,0,0.5-0.7,0-0.7c-1.6-0.2-3.3-0.2-4.9,0.2c-0.7,0.2-1.4,0.4-2.1,0.7c-0.5,0.2-0.8,0.4-1.4,0.4
				c-0.7,0-0.6-0.1-1.1-0.4c-2.1-1.6-5-0.9-6.9,0.6c-0.5,0.4-0.9,0.9-1.4,1.3c-1.2,0.9-2.1,0.3-3.4-0.2c-1-0.5-2.1-0.7-3.3-0.6
				c-2.4,0.1-4.5,1.3-5.9,3.2C961.9,129.4,962.5,129.8,962.8,129.4L962.8,129.4z"/>
		</g>
	</g>
</g>
<g id="girl">
	<g id="leg_right">
		<path d="M923.5,296.9c0.5,3,0.9,6,1.4,9c-9.9,3.2-14.7,5.2-14.5,6.1c0.2,1,8.1,0.3,23.7-2.2c-0.9-4.7-1.8-9.5-2.7-14.2
			C928.7,295.9,926.1,296.4,923.5,296.9z"/>
		<path class="st6" d="M902.2,196.5c-0.2,3.4-0.4,8.2-0.6,14.1c-0.2,6.2-0.3,9.5-0.3,13.5c0,1.7,0.1,8.7,1,17.8
			c0.7,7.6,1.9,19,6.1,33c1.6,5.5,4.2,13,8.2,21.5c1.8,0.3,4,0.4,6.4,0.3c4.6-0.2,8.3-1.3,10.9-2.4c-0.7-2.4-1.8-5.9-2.9-10.1
			c-1.5-5.6-5.7-22.7-7.4-45.5c-0.8-11.5-1.1-25.8,0.3-42.3C916.7,196.4,909.5,196.5,902.2,196.5z"/>
		<path class="st7" d="M923.2,198.5c-0.5,1.8-1.1,4.4-1.8,7.5c-1.7,8.3-3.5,20.2-3.4,40.2c0.1,12.3,1,29.4,4.2,50
			c1.2-0.1,2.5-0.3,3.8-0.5c2.8-0.4,5.3-1,7.7-1.6c-1-3.4-2.5-8.4-4-14.6c-5.3-21.9-6.8-40.5-7.2-52.7
			C922.4,219.5,922.4,209.9,923.2,198.5z"/>
		<g>
			<g>
				<path class="st1" d="M923.3,197.2c-2.5,25.3-0.9,50.9,4.6,75.7c1.6,7,3.4,14,5.6,20.9c0.1,0.4,0.9,0.2,0.7-0.2
					c-7.7-24.2-11.5-49.5-11.3-74.8c0-7.2,0.4-14.4,1.1-21.6C924.1,196.7,923.4,196.7,923.3,197.2L923.3,197.2z"/>
			</g>
		</g>
		<g>
			<g>
				<path class="st1" d="M901.2,219.6c-0.9,20.5,1.9,41.1,8.4,60.5c1.8,5.4,3.9,10.8,6.3,16c0.2,0.4,0.8,0,0.6-0.4
					c-8.4-18.6-13.3-38.7-14.5-59.1c-0.3-5.7-0.3-11.4-0.1-17.1C902,219.1,901.2,219.1,901.2,219.6L901.2,219.6z"/>
			</g>
		</g>
		<g>
			<g>
				<path class="st1" d="M916.2,296.4c0.8,0.9,2.8,0.7,3.9,0.7c1.7,0,3.5-0.1,5.2-0.4c1.9-0.3,3.7-0.7,5.6-1.1
					c0.9-0.2,2.8-0.3,3.3-1.3c0.2-0.4-0.4-0.8-0.6-0.4c-0.2,0.5-1.5,0.6-1.9,0.7c-0.7,0.2-1.4,0.3-2.1,0.5c-1.3,0.3-2.6,0.6-3.9,0.8
					c-1.4,0.2-2.7,0.4-4.1,0.4c-1,0-4,0.4-4.8-0.5C916.4,295.5,915.8,296,916.2,296.4L916.2,296.4z"/>
			</g>
		</g>
	</g>
	<g id="leg_left">
		<path class="st6" d="M894.9,196.4c-0.7,1.6-1.7,4.6-2.4,7.2c-0.9,3.4-1.1,5.4-1.6,8.3c-0.9,5.4-1.5,6.4-2.9,12.3
			c-1.4,6.4-2.1,11.3-2.6,15.2c-0.4,3-1.1,9.3-1.4,17.3c-0.1,3.5-0.2,5.5-0.1,8.3c0.2,8.9,1.6,15.7,2.2,18.4
			c1.7,7.4,4.1,13.8,6.6,18.9c1.1,0.6,2.8,1.3,5,1.8c2.6,0.6,6,1.3,9.3-0.3c0.9-0.4,2.9-1.7,4.5-4.6c-1.2-3.3-2.7-7.9-3.8-13.6
			c-2.9-14.1-1.8-25.3-1.1-32.4c1.3-13.3,4.4-23.3,9.8-40.5c1.8-5.8,3.4-10.5,4.5-13.6c0.4-2.5,1.2-9.9-2.7-13
			C912.1,181.6,898.6,188.4,894.9,196.4z"/>
		<path class="st8" d="M917.1,209.7c-1.6,2.6-3.9,6.4-6.1,11.2c-2.7,5.9-6.8,16.4-9,37.2c-1.2,11.4-2,27.3-0.1,46.5
			c0.8,0.1,4.1,0.3,6.9-1.9c1.4-1.2,2.2-2.5,2.6-3.4c-1.2-3.4-2.8-8.3-4-14.4c-3.5-17.8-1.3-32.2,0.3-42.2
			C909.1,234.3,911.7,222.8,917.1,209.7z"/>
		<path d="M898.8,304.2c0.8,3,1.7,6.1,2.5,9.2c-13.4,4.1-20,6.6-19.7,7.6c0.2,1.1,9.4,0.3,27.3-2.5c-0.5-4.9-0.9-9.8-1.4-14.7
			C904.6,303.9,901.7,304.1,898.8,304.2z"/>
		<g>
			<g>
				<path class="st1" d="M894.6,196.7c-2.6,6.7-4,13.8-5.4,20.8c-1.5,7.4-2.9,14.7-4,22.2c-1.9,13.8-2.5,27.9,0.1,41.6
					c1.4,7.4,3.8,14.6,7.3,21.2c0.2,0.4,0.9,0,0.6-0.4c-13.4-25.4-9.3-55.1-3.9-82.1c1.6-7.8,3-15.8,5.9-23.2
					C895.5,196.4,894.8,196.2,894.6,196.7L894.6,196.7z"/>
			</g>
		</g>
		<g>
			<g>
				<path class="st1" d="M916.8,209.6c-8.4,22.3-14,46.3-10.7,70.2c0.9,6.6,2.5,13.1,4.8,19.3c0.2,0.4,0.9,0.2,0.7-0.2
					c-8.3-22.5-6.6-47.1-0.4-69.8c1.8-6.5,3.9-12.9,6.3-19.3C917.7,209.4,917,209.2,916.8,209.6L916.8,209.6z"/>
			</g>
		</g>
		<g>
			<g>
				<path class="st1" d="M892.7,302.5c3.5,1.9,7.6,2.8,11.6,2.2c3.3-0.4,7.1-1.9,7.4-5.7c0-0.5-0.7-0.5-0.7,0
					c-0.3,3.9-5.1,5-8.3,5.1c-3.3,0.1-6.6-0.7-9.5-2.3C892.7,301.7,892.3,302.3,892.7,302.5L892.7,302.5z"/>
			</g>
		</g>
	</g>
	<g id="torso">
		<path class="st9" d="M900,131.3c-0.7,0.8-1.6,2-2.5,3.6c-3.1,5.4-3.3,10.7-3.3,15.3c0,6.8-0.1,10.2,0.6,17.5
			c0.7,6.9,0.8,16.8-1.6,29.4c2.2,1.6,5.3,3.4,9.5,4.4c11.9,2.8,21.8-4.2,23.7-5.5c-2.4-13.9-3.7-25-4.4-32.9
			c-0.5-4.9-2.2-12.1-5.7-26.5c-1-4.4-2.1-8.6-5.4-9.8C906.4,125.2,900.9,130.4,900,131.3z"/>
		<path class="st10" d="M910.8,127.3c0.4,1.6,1,4.1,1.5,7.1c0.7,3.9,1.7,9.8,2.4,18.6c0.7,9,1.5,26,1.8,47.9
			c1.7-0.5,3.7-1.2,5.9-2.4c1.4-0.8,2.7-1.6,3.7-2.4c-0.2-1.9-0.5-4.8-1-8.4c-0.7-4.4-1.3-7.5-1.7-9c-0.8-3.9-1.7-9.8-1.8-18
			c-1-4.3-1.8-7.8-2.3-10.2c-1.4-6.6-1.9-9-3-13c-1.1-4-2.2-7.2-3-9.1C912.6,127.9,911.7,127.6,910.8,127.3z"/>
	</g>
	<g id="backpack">
		<path class="st6" d="M900,133.7c0.2,0.4,0.6,0.6,1.4,1c0.7,0.3,1.4,0.8,2.1,1.1c2.1,0.9,4.7,5,5.1,5.7c1.5,2.5,3.3,5.4,4.3,9.6
			c0.3,1.1,0.9,3.9,0.2,13.6c-0.8,9.9-1.8,11.2-1,16.2c0.6,3.6,1.3,7.8,4.8,10.2c3.3,2.1,7,1.4,7.8,1.2c4.7-0.9,7.4-4.6,10.1-8.2
			c4-5.4,5.5-10.8,6.2-14c0.3-1.5,0.2-5.8,0.2-14.4c-0.1-8.9-0.2-12-2.6-14.6c-1.6-1.7-3.5-2.6-4.8-3c0.1-0.5,0.1-1.4-0.3-2.1
			c-0.8-1.3-2.9-1.3-4.2-1.2c-5.6,0.1-9.7,3.9-9.9,4.1c-3.5,3.2-4.5,7.2-4.8,8.8c-0.7-3.1-1.8-5.5-2.7-7c-0.8-1.3-1.9-2.7-4.2-5.4
			c-1.8-2.1-2.7-3-4.1-3.4c-0.3-0.1-2.6-0.8-3.3,0.2C899.7,132.5,899.7,133.2,900,133.7z"/>
		<path class="st11" d="M899.8,132.8c0.1-0.3,1.8,0.3,2,0.4c2.5,0.9,4.7,2.9,7.5,7.5c1.4,2.3,3.3,5.7,4.8,10c1.1-1.1,2-2,2.7-2.7
			c0,0,2.7-2.6,7-5.1c0.4-0.2,0.9-0.5,1.3-0.3c0.8,0.4,0,2.5,0.2,4.4c0.2,1.4,1,3.4,4.2,5.7c0.1,0.4,0.1,1-0.2,1.4
			c-0.7,0.8-2.5,0.1-3.4-0.2c-1.5-0.5-4.4-1.9-7.8-5.9c-0.3,1.3-0.7,3.1-1.1,5.4c-0.3,2-1.1,8.5,0.2,17c0.5,3.3,1.6,7.8,3.7,12.9
			c0.9,0.4,2.1,0.8,3.5,1c2.9,0.4,5.3-0.1,6.7-0.6c-0.8,0.4-1.9,1.1-2.9,2.2c-1.2,1.4-1.2,2.5-2.2,3.8c-0.6,0.9-1.8,2-4,2.8
			c-0.7-0.1-1.7-0.2-2.8-0.7c-3.4-1.5-5-4.7-5.7-6.2c-0.9-2-2.3-6.1-1-20c0.8-7.9,1.6-10.4,0.3-14.9c-1-3.5-2.7-6.3-3.3-7.3
			c-1.1-1.7-3-4.9-6.5-7.7C901.5,134.3,899.7,133.1,899.8,132.8z"/>
		<path d="M927.7,138.4c-0.4,0.6-1,1.5-1.5,2.6c-0.2,0.7-0.8,2.2-0.7,4.2c0.3,4,3.1,6.4,3.6,6.8c0.3,0.3,0.6,0.5,0.8,0.6
			c-0.3,1-0.6,2.5-0.8,4.4c-0.2,2.6-0.4,5.6,1.1,6.5c1,0.5,2.5,0.2,3.3-0.6c0.2-0.2,0.8-0.8,0.9-3.6c0.2-3.3-0.5-4.7,0.5-5.7
			c0.4-0.4,1.1-0.7,1.8-1c0.7-0.3,1.3-0.4,1.8-0.5c-0.3,2-0.5,3.9-0.6,5.3c-0.2,1.8-0.2,2.7,0.4,3.3c0.6,0.5,1.5,0.6,2.2,0.3
			c0.9-0.4,1.2-1.6,1.8-3.9c0.4-1.8,0.8-3.4,0.5-5.5c-0.1-1.1-0.3-1.9-0.5-2.5c0-0.4-0.2-1-0.4-1.8c-0.4-1.4-0.8-1.9-1.1-2.8
			c-0.4-1.3,0-2,0.1-3.5c0.1-1.2,0-2.8-0.8-4.9c-0.3,0-1,0.1-1.7,0.5c-0.8,0.5-1.2,1.3-1.3,1.6c-0.6-0.1-1.8-0.3-3.2,0.1
			c-2.3,0.6-3.5,2.3-3.9,2.9c0.6-1.4,0.1-2.8-0.8-3.2C928.7,137.7,927.8,138.3,927.7,138.4z"/>
		<g>
			<g>
				<path class="st6" d="M930.5,146.1c0.2-0.5,1.5-1.5,1.9-0.6c0.2,0.4,0.8,0,0.6-0.4c-0.3-0.6-0.9-0.7-1.5-0.6
					c-0.7,0.1-1.3,0.6-1.7,1.3C929.6,146.2,930.3,146.5,930.5,146.1L930.5,146.1z"/>
			</g>
		</g>
		<g>
			<g>
				<path class="st6" d="M937.8,144.2c0.1-0.3,0.3-0.7,0.5-0.9c0.2-0.2,1-0.5,1,0c0,0.5,0.8,0.5,0.7,0c0-0.7-0.7-1.2-1.4-1.1
					c-0.8,0.1-1.2,0.9-1.6,1.6C937,144.2,937.6,144.6,937.8,144.2L937.8,144.2z"/>
			</g>
		</g>
		<g>
			<g>
				<path class="st6" d="M938,146.6C938,146.6,938,146.6,938,146.6c0,0.1-0.1,0.2-0.1,0.2c-0.1,0.1-0.3,0-0.3-0.1c0,0,0-0.1,0,0
					l-0.1,0.1C937.7,146.6,937.9,146.6,938,146.6C938,146.6,938,146.6,938,146.6C938,146.6,938,146.6,938,146.6
					C938,146.6,938,146.6,938,146.6c0,0.2,0,0.3-0.2,0.4c-0.1,0-0.1,0-0.2,0c-0.1,0-0.1-0.2,0-0.3c0,0,0,0,0,0c0,0,0,0,0,0
					c-0.2,0.1-0.2,0.3-0.1,0.5c0.1,0.1,0.3,0.2,0.5,0.1c0.2-0.1,0.3-0.3,0.4-0.5c0-0.3-0.2-0.5-0.5-0.5c-0.3,0-0.5,0.2-0.5,0.4
					c0,0.2,0.1,0.4,0.2,0.5c0.1,0.1,0.4,0.1,0.5,0c0.3-0.2,0.4-0.8,0-1c-0.2-0.1-0.4-0.1-0.6,0c-0.2,0.1-0.2,0.4-0.2,0.6
					c0,0.2,0.3,0.3,0.4,0.2C937.9,147,938,146.8,938,146.6L938,146.6z"/>
			</g>
		</g>
		<g>
			<g>
				<path class="st6" d="M934,147.3c-0.7,0.4-1.7,0.2-2.2-0.5c-0.3-0.4-0.9,0-0.6,0.4c0.7,1,2.1,1.4,3.2,0.7
					C934.8,147.7,934.4,147.1,934,147.3L934,147.3z"/>
			</g>
		</g>
		<g>
			<g>
				<path class="st6" d="M933.5,149c-0.5,0.4-1,1-1.3,1.6c-0.2,0.4,0.4,0.8,0.6,0.4c0.3-0.6,0.7-1,1.2-1.4c0.1-0.1,0.1-0.4,0-0.5
					C933.8,148.8,933.6,148.8,933.5,149L933.5,149z"/>
			</g>
		</g>
		<g>
			<g>
				<path class="st6" d="M939.5,146.2c0.5-0.6,0.9-1.2,1.1-1.9c0.1-0.4-0.6-0.6-0.7-0.2c-0.2,0.6-0.5,1.1-0.9,1.6
					C938.7,146.1,939.2,146.6,939.5,146.2L939.5,146.2z"/>
			</g>
		</g>
		<g>
			<g>
				<path class="st6" d="M939.6,147.2c0.6-0.1,1.3-0.3,1.8,0.2c0.3,0.3,0.8-0.2,0.5-0.5c-0.7-0.7-1.6-0.6-2.5-0.4
					C938.9,146.5,939.1,147.3,939.6,147.2L939.6,147.2z"/>
			</g>
		</g>
		<g>
			<g>
				<path class="st1" d="M899.7,133.1c1.1-1.8,3.9-0.7,5.2,0.2c1.6,1,2.9,2.6,4,4.2c2.3,3.2,4.3,6.6,5,10.5c0.1,0.5,0.8,0.3,0.7-0.2
					c-0.9-4.6-3.6-9.1-6.6-12.6c-1.8-2-6.8-5.9-9.1-2.4C898.8,133.2,899.4,133.6,899.7,133.1L899.7,133.1z"/>
			</g>
		</g>
		<g>
			<g>
				<path class="st1" d="M901.2,134.8c6,3.4,9.4,9.7,11.1,16.1c0.1,0.5,0.8,0.3,0.7-0.2c-1.7-6.6-5.3-13.1-11.4-16.6
					C901.2,133.9,900.8,134.6,901.2,134.8L901.2,134.8z"/>
			</g>
		</g>
		<g>
			<g>
				<path class="st1" d="M914.7,147.7c0.6-4.4,3.4-8.1,7.3-10.2c2-1.1,4.2-1.8,6.5-2.1c1.1-0.1,2.3-0.3,3.4,0.1
					c1.1,0.4,2.2,2.2,0.8,3.1c-0.4,0.2,0,0.9,0.4,0.6c1.6-0.9,1.2-3.2-0.2-4.1c-2.2-1.4-5.8-0.4-8,0.3c-5.5,1.8-10,6.2-10.9,12.1
					C913.9,147.9,914.6,148.1,914.7,147.7L914.7,147.7z"/>
			</g>
		</g>
		<g>
			<g>
				<path class="st1" d="M916.4,148.8c1.2-1.4,2.8-2.6,4.3-3.7c1.4-1.1,3-2,4.8-2.4c0.5-0.1,0.3-0.8-0.2-0.7c-1.8,0.4-3.5,1.3-5,2.5
					c-1.5,1.2-3.1,2.4-4.4,3.9C915.5,148.6,916.1,149.2,916.4,148.8L916.4,148.8z"/>
			</g>
		</g>
		<g>
			<g>
				<path class="st1" d="M925.6,142.7c0.5-1.2,1.2-2.3,2-3.4c0.1-0.2,0.3-0.5,0.5-0.6c0.2-0.3,0.4-0.3,0.7,0c0.4,0,0.6,0.1,0.6,0.5
					c0.3,0.5,0.3,1.4,0.4,2c0.1,0.5,0.8,0.3,0.7-0.2c-0.2-0.9-0.4-4.3-2.2-3.4c-0.7,0.3-1.2,1.2-1.7,1.8c-0.7,0.9-1.2,1.9-1.7,2.9
					C924.7,142.8,925.4,143.2,925.6,142.7L925.6,142.7z"/>
			</g>
		</g>
		<g>
			<g>
				<path class="st1" d="M930.4,141.4c1.3-1.6,3.9-3.9,6.1-2.7c0.4,0.2,0.8-0.4,0.4-0.6c-2.6-1.4-5.5,0.9-7,2.8
					C929.6,141.3,930.1,141.8,930.4,141.4L930.4,141.4z"/>
			</g>
		</g>
		<g>
			<g>
				<path class="st1" d="M937.2,138.6c0.3-0.5,2-2.5,2.7-2c0.4,0.3,0.4,1.2,0.5,1.7c0.1,0.7,0.2,1.4,0.2,2.1c0,0.5,0.8,0.5,0.7,0
					c0-1-0.1-2-0.4-2.9c-0.1-0.5-0.3-1.6-0.9-1.8c-0.6-0.1-1.4,0.4-1.9,0.7c-0.7,0.5-1.2,1.1-1.6,1.8
					C936.3,138.6,937,139,937.2,138.6L937.2,138.6z"/>
			</g>
		</g>
		<g>
			<g>
				<path class="st1" d="M917.4,147.6c1.7,1.7,3.5,3.2,5.5,4.6c1.9,1.4,3.8,2.3,6.2,2.2c0.5,0,0.5-0.8,0-0.7c-2.5,0.1-4.3-1-6.2-2.4
					c-1.8-1.3-3.4-2.7-5-4.2C917.5,146.7,917,147.2,917.4,147.6L917.4,147.6z"/>
			</g>
		</g>
		<g>
			<g>
				<path class="st1" d="M912.3,150.1c2.7,12.1-4.4,25.3,1.5,36.9c1.1,2.2,2.8,4.1,5.1,5.1c2.2,0.9,4.8,0.9,7.2,0.1
					c5.1-1.6,8.5-6.4,11-10.9c1.6-2.8,3-5.8,3.8-9c0.4-1.6,0.6-3.2,0.7-4.8c0.1-1.9-0.2-3.7-0.1-5.6c0-0.5-0.7-0.5-0.7,0
					c-0.1,3,0.3,5.9-0.3,9c-0.5,2.7-1.5,5.3-2.7,7.8c-2.3,4.6-5.3,9.8-10.1,12.2c-2.4,1.2-5.5,1.7-8.1,0.7c-2.6-0.9-4.3-3.2-5.4-5.6
					c-2.3-5.3-2.1-11.3-1.4-16.9c0.7-6.3,1.8-12.8,0.4-19.1C912.9,149.5,912.2,149.7,912.3,150.1L912.3,150.1z"/>
			</g>
		</g>
		<g>
			<g>
				<path class="st1" d="M923.4,175.1c-1.4,2.4-2.3,5.1-2.7,7.9c-0.1,0.5,0.6,0.7,0.7,0.2c0.4-2.7,1.3-5.3,2.6-7.7
					C924.3,175.1,923.7,174.7,923.4,175.1L923.4,175.1z"/>
			</g>
		</g>
		<g>
			<g>
				<path class="st1" d="M923.9,175.4c3.7-0.3,7.6-1,11.3-0.6c0.5,0,0.5-0.7,0-0.7c-3.7-0.4-7.6,0.3-11.3,0.6
					C923.4,174.7,923.4,175.5,923.9,175.4L923.9,175.4z"/>
			</g>
		</g>
		<g>
			<g>
				<path class="st1" d="M921.1,183.7c1.8,1.1,3.9,1,6,0.9c2.1-0.1,4.3-0.3,6.2-1.4c0.4-0.2,0-0.9-0.4-0.6c-1.8,1.1-3.8,1.3-5.8,1.3
					c-1.9,0.1-3.9,0.2-5.6-0.8C921.1,182.8,920.7,183.5,921.1,183.7L921.1,183.7z"/>
			</g>
		</g>
		<g>
			<g>
				<path class="st1" d="M934.9,174.6c-0.5,2.7-1.2,5.4-2.2,8c-0.2,0.4,0.5,0.6,0.7,0.2c1-2.6,1.7-5.3,2.2-8
					C935.7,174.3,934.9,174.1,934.9,174.6L934.9,174.6z"/>
			</g>
		</g>
		<g>
			<g>
				<path class="st1" d="M923.2,176.4c1.2,2.7,4.7,3.4,7.4,3.4c0.5,0,0.5-0.7,0-0.7c-2.4,0-5.6-0.6-6.7-3
					C923.7,175.6,923,176,923.2,176.4L923.2,176.4z"/>
			</g>
		</g>
		<g>
			<g>
				<path class="st1" d="M928.6,178.9c-0.1,0.6-0.1,1.2-0.2,1.8c0,0.5,0.7,0.5,0.7,0c0.1-0.6,0.1-1.2,0.2-1.8
					C929.4,178.4,928.7,178.4,928.6,178.9L928.6,178.9z"/>
			</g>
		</g>
		<g>
			<g>
				<path class="st1" d="M930.1,178.9c-0.1,0.6-0.1,1.2-0.2,1.9c0,0.5,0.7,0.5,0.7,0c0.1-0.6,0.1-1.2,0.2-1.9
					C930.9,178.4,930.1,178.4,930.1,178.9L930.1,178.9z"/>
			</g>
		</g>
		<g>
			<g>
				<path class="st1" d="M930.7,179.9c1.8-0.4,3.2-1.5,4.2-3c0.2-0.4-0.4-0.8-0.6-0.4c-0.8,1.4-2.1,2.3-3.7,2.7
					C930,179.3,930.2,180,930.7,179.9L930.7,179.9z"/>
			</g>
		</g>
		<g>
			<g>
				<path class="st1" d="M925.2,141.4c-0.7,4.4,0.1,9.7,4.6,11.7c0.4,0.2,0.8-0.4,0.4-0.6c-4.2-1.9-4.9-6.8-4.2-10.9
					C926,141.1,925.3,140.9,925.2,141.4L925.2,141.4z"/>
			</g>
		</g>
		<g>
			<g>
				<path class="st1" d="M940.6,140.2c0,1.4,0,2.9,0.2,4.3c0.2,1.5,1.6,3.2,0.8,4.7c-0.2,0.4,0.4,0.8,0.6,0.4
					c0.6-1.4,0.1-2.5-0.4-3.9c-0.6-1.7-0.5-3.7-0.5-5.5C941.3,139.7,940.6,139.7,940.6,140.2L940.6,140.2z"/>
			</g>
		</g>
		<g>
			<g>
				<path class="st6" d="M931.9,152.6c1.1-0.6,2.3,0,2.6,1.2c0,0.1,0.2,0.1,0.2,0c-0.3-1.3-1.7-2-2.9-1.3
					C931.7,152.5,931.8,152.6,931.9,152.6L931.9,152.6z"/>
			</g>
		</g>
		<g>
			<g>
				<path class="st6" d="M933.8,153.8c0.2,0.2,0.3,0.4,0.4,0.7c0,0.1,0.2,0.1,0.2,0c-0.1-0.3-0.2-0.5-0.4-0.7
					C933.8,153.6,933.7,153.8,933.8,153.8L933.8,153.8z"/>
			</g>
		</g>
		<g>
			<g>
				<path class="st6" d="M938.8,152.1c0.2-1,0.9-1.9,1.8-2.3c0.1,0,0-0.2-0.1-0.1c-1,0.5-1.7,1.4-1.9,2.4
					C938.6,152.2,938.8,152.2,938.8,152.1L938.8,152.1z"/>
			</g>
		</g>
	</g>
	<g id="head">
		<path class="st6" d="M894.8,99.1c-1.7,0.9-3.2,2.5-3.8,3.2c-1.6,1.8-2.4,3.5-3.3,5.4c-0.7,1.5-1.6,3.7-2.3,6.5
			c1,0.2,1.9,0.3,2.9,0.5c0,0.9,0,2.3,0.3,4c0.3,1.5,0.9,3.9,2.9,5.6c2.7,2.3,6.4,1.8,7.1,1.7c0,1.2,0.3,2.8,1.2,4.6
			c0.2,0.4,0.5,0.8,0.7,1.2c1.4-0.4,3.5-1.2,5.6-2.9c5.3-4.3,6-10.6,6.2-12.5c0.3-2.8,0.9-8.2-2.6-12.7
			C906.2,99.1,899.2,96.9,894.8,99.1z"/>
		<path class="st12" d="M889.7,104.3c0.7-1,2-2.6,3.6-3.7c2.4-1.7,3.5-1,4.8-2.5c0.9-1.1,1.5-2.9,0.8-3.7c-1.1-1.3-4.9,0.3-5.4,0.5
			c-1.1,0.5-4.7,2-6.2,5.8c-1.2,3.2-0.4,6.7,0.1,6.8c0.1,0,0.2-0.2,1-1.4C888.9,105.5,889.3,104.9,889.7,104.3z"/>
		<path class="st12" d="M895.1,96.8c-0.2,0.6-0.5,1.9,0.5,4.5c1.8,4.6,5.9,8.7,8,7.9c0.4-0.2,0.9-0.6,1.8-0.7c0.2,0,1.1,0,1.8,0.5
			c1.1,0.9,1.1,2.8,0.4,4c-0.1,0.2-0.8,1.2-1.8,1.3c-0.9,0.1-1.2-0.6-1.9-0.7c-1.8-0.1-3.3,3.8-3.5,4.3c-0.4,1-1.4,3.6-0.7,6.9
			c0.1,0.7,0.5,2.2,1.6,3.8c2.3,3.4,6.2,4.2,7.7,4.5c1.4,0.3,6.8,1.4,11.1-2.1c0.7-0.5,2.9-2.4,3.5-5.7c1-5.4-3.5-9.5-3.8-9.7
			c-0.2-2.8-0.9-7.3-3.2-12.2c-1.5-3.1-2.9-6-6.1-8.2c-4.2-2.8-10.2-3.6-13.4-1.2C896.7,94.5,895.6,95.3,895.1,96.8z"/>
		<path class="st12" d="M890.4,123.6c-0.4,0.4-1.5,1.5-1.7,3.3c-0.3,2.5,1.4,4.2,1.7,4.6c1.8,1.9,4.9,2.6,7.1,1.5
			c0.2-0.1,2.1-1.1,2.2-2.6c0-0.6-0.3-1-0.8-2.4c-0.3-0.9-0.5-1.7-0.7-2.2c-0.7,0.2-1.8,0.5-3.2,0.3
			C892.4,125.8,890.8,124.1,890.4,123.6z"/>
		<path class="st13" d="M895.4,99c0,0.8,0.1,1.9,0.6,3.1c0.3,0.8,0.7,1.3,1,1.7c1,1.6,1.4,3.1,1.9,4.8c0.9,2.6,0.7,4.8,0.5,7.5
			c-0.1,2.2-0.6,5.7-2.3,9.6c0.7,0.2,1.6,0.6,2.7,1.3c1.9,1.3,2.8,2.8,3.3,3.6c1.1,1.5,3.6,3,9.6,2.9c-0.6-0.6-1.4-1.5-2.4-2.6
			c-2.2-2.5-4.1-4.8-5.2-7.5c-0.6-1.5-1.6-4.7-0.9-9.3c0.7,0.3,1.5,0.3,2.2-0.1c0.7-0.4,1.1-1.3,0.9-2.2c-0.3-0.9-1.4-1.6-2.6-1.3
			c-0.2-0.6-0.6-1.5-1.3-2.5c-1-1.5-2.1-2.5-2.5-2.8C899.9,104.2,898,102.3,895.4,99z"/>
		<path class="st14" d="M885.6,113.8c0-0.4,1.3-0.7,2.4-0.6c0.9,0.1,2.1,0.5,2,0.9c0,0.3-1.1,0.6-1.8,0.6
			C887,114.8,885.6,114.2,885.6,113.8z"/>
		<g>
			<g>
				<path class="st1" d="M888.7,104.6c-1.4,3.1-2.7,6.3-3.8,9.5c-0.1,0.2,0.1,0.4,0.2,0.4c1,0.4,1.9,0.5,3,0.5c0.5,0,0.5-0.7,0-0.7
					c-1,0-1.9-0.2-2.8-0.5c0.1,0.1,0.2,0.3,0.2,0.4c1.1-3.2,2.3-6.3,3.7-9.4C889.6,104.5,888.9,104.1,888.7,104.6L888.7,104.6z"/>
			</g>
		</g>
		<g>
			<g>
				<path class="st1" d="M888,115.2c0.2,3.2,0.5,6.8,2.9,9.2c2.3,2.3,5.6,2.1,8.6,1.8c0.5,0,0.5-0.8,0-0.7c-2.8,0.3-6,0.6-8.1-1.6
					c-2.2-2.3-2.5-5.7-2.7-8.7C888.8,114.7,888,114.7,888,115.2L888,115.2z"/>
			</g>
		</g>
		<g>
			<g>
				<path class="st1" d="M898.1,126.3c0.3,1.7,0.9,3.4,1.8,5c0.2,0.4,0.9,0,0.6-0.4c-0.8-1.5-1.4-3.1-1.7-4.8
					C898.8,125.6,898,125.8,898.1,126.3L898.1,126.3z"/>
			</g>
		</g>
		<g>
			<g>
				<path class="st1" d="M888.5,119c1.2,1.1,3,0.6,3.5-1c0.1-0.5-0.6-0.6-0.7-0.2c-0.3,1-1.5,1.4-2.2,0.6
					C888.7,118.2,888.2,118.7,888.5,119L888.5,119z"/>
			</g>
		</g>
		<g>
			<g>
				<path class="st1" d="M890.8,118c0.4,0.1,0.7,0.3,0.9,0.6c0.1,0.1,0.4,0.1,0.5,0c0.1-0.1,0.1-0.4,0-0.5c-0.3-0.4-0.8-0.7-1.3-0.8
					C890.6,117.2,890.4,117.9,890.8,118L890.8,118z"/>
			</g>
		</g>
		<g>
			<g>
				<path class="st1" d="M892,108.7c0.2-1,1.5-0.8,2.2-0.5c0.6,0.3,1,0.8,1.3,1.5c0.2,0.4,0.9,0.2,0.7-0.2c-0.4-1.1-1.2-1.9-2.4-2.2
					c-1-0.3-2.3,0-2.5,1.2C891.2,109,891.9,109.2,892,108.7L892,108.7z"/>
			</g>
		</g>
		<g>
			<g>
				<path class="st1" d="M891.9,104.3c1.1-1.9,3.3-0.4,3.8,1.1c0.1,0.5,0.8,0.3,0.7-0.2c-0.3-1.1-1.1-2.2-2.3-2.5
					c-1.1-0.2-2.2,0.2-2.8,1.2C891,104.3,891.7,104.7,891.9,104.3L891.9,104.3z"/>
			</g>
		</g>
		<g>
			<g>
				<path class="st1" d="M892.7,112.9c0.5,0,0.5-0.7,0-0.7C892.2,112.2,892.2,112.9,892.7,112.9L892.7,112.9z"/>
			</g>
		</g>
		<g>
			<g>
				<path class="st1" d="M894.1,111.8C894.1,111.8,894.2,111.8,894.1,111.8c0.3,0,0.5-0.2,0.5-0.4s-0.2-0.4-0.4-0.4c0,0-0.1,0-0.1,0
					c-0.2,0-0.4,0.2-0.4,0.4C893.7,111.7,893.9,111.8,894.1,111.8L894.1,111.8z"/>
			</g>
		</g>
		<g>
			<g>
				<path class="st1" d="M894.1,113.1C894.1,113.1,894.1,113.1,894.1,113.1c0,0.5,0.7,0.5,0.7,0.1c0,0,0,0,0-0.1
					C894.9,112.6,894.1,112.6,894.1,113.1C894.1,113.1,894.1,113.1,894.1,113.1c0,0.5,0.7,0.5,0.7,0.1c0,0,0,0,0-0.1
					C894.9,112.6,894.1,112.6,894.1,113.1L894.1,113.1z"/>
			</g>
		</g>
		<g>
			<g>
				<path class="st1" d="M905,109.3c0.7-1,1.8-0.3,2.2,0.4c0.3,0.6,0.3,1.4,0.3,2c-0.1,1.7-1.5,2.9-3.2,1.8
					c-0.4-0.3-0.8,0.4-0.4,0.6c1,0.6,2.2,0.7,3.2,0c1-0.8,1.2-2,1.1-3.2c-0.1-1.1-0.5-2.4-1.7-2.8c-0.8-0.3-1.7,0-2.2,0.7
					C904.1,109.3,904.8,109.6,905,109.3L905,109.3z"/>
			</g>
		</g>
	</g>
	<g id="binocular">
		<path class="st6" d="M837.9,95c-0.5,0-1,0-1.5,0c-0.8,1.6-1.3,3.1-1.6,4.2c-0.8,3.2-0.6,5.9-0.4,7.2c0.1,0.9,0.2,1.6,0.4,2.1
			c0.4,0,0.9,0,1.3,0c0.2,0.6,0.3,1.2,0.5,1.8c4.2,0,7.7,0,10.1,0c14.7,0.1,24.9,0.7,27.3,0.8c3,0.2,5.4,0.3,6.9,0.4
			c0-0.9,0.3-1.2,0.5-1.3c0.4-0.2,0.7,0.2,1.3,0.1c0.5-0.1,0.9-0.7,1.1-1.2c0.4,0.2,1.3,0.5,2.2,0.4c0.2,0,0.4-0.1,0.6-0.1
			c0.4-0.8,0.8-1.7,1.3-2.5c-0.6-0.2-1.4-0.4-2.5-0.4c-0.6,0-1.1,0.1-1.5,0.1c0-0.1-0.4-1.2-1.5-1.5c-0.3-0.1-0.6,0-0.8,0
			c-0.1-0.3-0.3-0.5-0.4-0.8c-0.6-0.1-1.5-0.2-2.6-0.4c-8.9-1.6-15.1-3.6-19.9-5c-4.5-1.4-11.2-3.2-19.7-5.3
			C838.6,94,838.2,94.5,837.9,95z"/>
		<path class="st15" d="M834.3,104.7c0.2,0,0.5,0.5,0.7,0.4c0.4-0.1,0.3-1.7,0.4-2.8c0.1-1.1,0.4-2.7,1.5-4.7
			c0.7,0.3,1.8,0.8,3.1,1.3c4.8,2.1,8.1,3.7,9.1,4.1c6.6,3.1,13.8,4.4,15.7,4.8c4.1,0.8,9.9,1.5,16.8,1.2c-0.3,0.8-0.6,1.6-0.9,2.5
			c-1.1,0-2.8,0-4.9-0.1c-8.8-0.2-14.9-0.4-18.5-0.6c-5-0.2-12.1-0.4-21.1-0.4c-0.1-0.7-0.2-1.3-0.3-2c-0.6,0.1-1.1,0.2-1.7,0.3
			C834,105.6,834.1,104.7,834.3,104.7z"/>
		<g>
			<g>
				<path class="st1" d="M838.4,93.6c-3.1,4.8-4,10.8-2.4,16.3c0.1,0.5,0.8,0.3,0.7-0.2c-1.5-5.3-0.7-11.1,2.3-15.8
					C839.3,93.5,838.6,93.2,838.4,93.6L838.4,93.6z"/>
			</g>
		</g>
		<g>
			<g>
				<path class="st1" d="M839,94.3c14.1,3.5,28.1,7.1,42.2,10.6c0.5,0.1,0.7-0.6,0.2-0.7c-14.1-3.5-28.1-7.1-42.2-10.6
					C838.8,93.5,838.6,94.2,839,94.3L839,94.3z"/>
			</g>
		</g>
		<g>
			<g>
				<path class="st1" d="M836.5,110.8c14.7-0.1,29.3,0.2,44,1c0.5,0,0.5-0.7,0-0.7c-14.6-0.8-29.3-1.1-44-1
					C836,110,836,110.8,836.5,110.8L836.5,110.8z"/>
			</g>
		</g>
		<g>
			<g>
				<path class="st1" d="M881,104.7c1,2.2,0.8,4.7-0.6,6.8c-0.3,0.4,0.4,0.8,0.6,0.4c1.5-2.2,1.7-5,0.6-7.5
					C881.4,103.9,880.8,104.2,881,104.7L881,104.7z"/>
			</g>
		</g>
		<g>
			<g>
				<path class="st1" d="M881.7,105.6c0.3,0.2,0.5,0.1,0.8,0.2c0.6,0.2,0.9,0.7,1,1.3c0.2,1.1-0.1,3.4-1.7,2.8
					c-0.4-0.2-0.6,0.5-0.2,0.7c1.6,0.6,2.7-1.1,2.7-2.5c0-0.8-0.1-1.7-0.5-2.4c-0.1-0.2-0.3-0.4-0.6-0.6c-0.3-0.1-0.8,0-1-0.2
					C881.7,104.7,881.3,105.4,881.7,105.6L881.7,105.6z"/>
			</g>
		</g>
		<g>
			<g>
				<path class="st1" d="M883.9,107c1.3-0.1,2.5,0,3.8,0.1c0.5,0,0.5-0.7,0-0.7c-1.3-0.1-2.5-0.2-3.8-0.1
					C883.4,106.3,883.4,107.1,883.9,107L883.9,107z"/>
			</g>
		</g>
		<g>
			<g>
				<path class="st1" d="M883.8,109.8c1,0.2,2,0.2,3.1,0.1c0.5,0,0.5-0.8,0-0.7c-1,0.1-1.9,0-2.9-0.1
					C883.5,109,883.3,109.7,883.8,109.8L883.8,109.8z"/>
			</g>
		</g>
		<g>
			<g>
				<path class="st1" d="M838,94.8c-2.4-1.4-3.1,3-3.4,4.3c-0.7,3.2-1.1,6.4-0.2,9.6c0,0.1,0.2,0.3,0.3,0.3c0.3,0,0.7,0,1,0
					c0.5,0,0.5-0.7,0-0.7c-0.3,0-0.7,0-1,0c0.1,0.1,0.2,0.2,0.3,0.3c-0.6-2.3-0.6-4.6-0.3-7c0.2-1,0.4-2.1,0.7-3.1
					c0.2-0.7,0.7-3.8,2.1-3C838,95.7,838.4,95,838,94.8L838,94.8z"/>
			</g>
		</g>
	</g>
	<g id="hand">
		<path class="st6" d="M864.9,100.2c-0.4-0.5-1.2-0.5-1.3-0.5c-0.8,0-1.6,0.8-2.5,2.6c-1.7,3.5-1.8,6.9-1.8,7.5
			c0,2.4,0.2,6.3,1.9,10.9c0.1,1.9,0.5,4.7,1.2,7.8c1.3,5.7,2.6,11.7,7.3,17c1.7,2,5.2,5.9,11.2,7.4c6.3,1.5,11.4-0.7,12.6-1.3
			c1.1-0.5,4.2-2.1,6.8-5.3c1.6-2,3.4-4.1,3.1-6.8c-0.1-1.1-0.6-2.1-1.4-3.7c-0.7-1.5-1.1-2.3-1.9-2.6c-1.1-0.4-2.3,0.3-3.6,1.1
			c-2.2,1.2-2.4,2.4-4.8,3.7c-0.6,0.3-1.2,0.5-2.5,0.9c-2,0.6-3.9,1.3-5.7,1.4c-3.9,0.3-7.1-2-8-2.6c-3.3-2.4-4.6-5.5-5.5-7.6
			c-1.9-4.6-1.7-8.9-1.4-11.4c1.2-0.2,1.9-0.7,2.2-0.9c1.3-1,1.6-2.4,2.1-4.6c0.3-1.4,0.5-2.1,0.1-2.4c-0.7-0.5-2.9,1.2-3.4,1.7
			c0.1-1.7,0.3-3.1,0.6-4c0.3-1.3,0.5-2,0.9-2.5c0.9-1,1.9-0.9,2.2-1.9c0.2-0.5,0.2-1.2-0.2-1.7c-0.5-0.5-1.6-0.5-2.5,0.2
			c-0.3-0.6-0.9-1-1.5-1.1s-1.1,0.4-1.2,0.5c0.1-0.7-0.2-1.3-0.7-1.5c-0.7-0.3-1.7,0-2.1,1.1C865.2,101.4,865.4,100.7,864.9,100.2z"
			/>
		<path class="st13" d="M863.6,99.7c-0.6,1-1.3,2.6-1.8,4.6c-1.1,4.4-0.2,8.1,0.2,9.8c4.3,18.3,2.4,18.8,5.4,23.1
			c1.1,1.5,8.6,11.9,19.9,10.6c9.4-1.1,14.4-9.7,15.1-10.9c0.4,1,0.8,2.7,0.5,4.7c-0.4,3-2.3,4.8-3,5.5c-0.6,0.6-1.4,1.2-3.1,2.3
			c-1.4,1-2.9,1.9-3.5,2.2c-3,1.7-7.6,2.1-10.8,1.6c-8.7-1.1-13.9-9.4-16.1-12.8c-5-7.8-5.5-15.7-5.4-19.7c-0.5-1.6-0.9-3.2-1.4-4.8
			c-0.3-2.5-0.3-4.5-0.3-5.9c0.1-3.6,0.2-6.2,2-8.5C862.2,100.6,863.1,100,863.6,99.7z"/>
		<g>
			<g>
				<path class="st1" d="M897.5,149.1c3.9-1.9,6.6-5.8,5.9-10.2c-0.4-2.7-2.5-7.3-6-5.7c-1.5,0.7-2.8,2.1-4.2,3.1
					c-2,1.3-4.2,2.4-6.5,3.1c-2.9,0.9-6.1,1.1-8.9-0.3c-2-1-3.6-2.7-4.9-4.6c-2.7-4.2-4.1-9.1-3.8-14.1c0-0.5-0.7-0.5-0.7,0
					c-0.3,4.2,0.6,8.2,2.5,11.9c1.6,3.3,4,6.5,7.6,7.8c4.4,1.6,9.1,0,13.1-2.1c1.8-0.9,3.3-2.2,4.9-3.4c1.4-1.1,2.9-1.7,4.4-0.2
					c1.8,1.8,2.4,5.1,1.8,7.5c-0.7,2.9-2.8,5.1-5.5,6.4C896.7,148.7,897,149.3,897.5,149.1L897.5,149.1z"/>
			</g>
		</g>
		<g>
			<g>
				<path class="st1" d="M869,120.8c-0.3-1.4,0.6-1.7,1.5-2.4c0.5-0.4,0.9-0.9,1.3-1.4c0.9-1.4,1.7-3,1.9-4.6
					c0.1-0.8,0.3-2.1-0.8-2.2c-1.3,0-1.9,1.6-3.1,1.7c-0.5,0-0.5,0.8,0,0.7c0.9-0.1,1.4-0.7,2.1-1.2c0.4-0.3,0.9-0.7,1.1,0
					c0.1,0.4-0.1,1.1-0.2,1.5c-0.2,0.8-0.5,1.7-0.9,2.4c-0.4,0.7-0.8,1.4-1.4,2c-0.5,0.5-1.2,0.7-1.8,1.1c-0.8,0.6-0.6,1.6-0.4,2.4
					C868.4,121.5,869.1,121.3,869,120.8L869,120.8z"/>
			</g>
		</g>
		<g>
			<g>
				<path class="st1" d="M860.3,116.9c-0.5-3.2-0.5-6.5,0-9.7c0.2-1.3,0.4-2.6,0.9-3.9c0.3-0.8,0.6-1.7,1.2-2.3
					c0.7-0.8,2.2-1.2,2.6,0.1c0.1,0.5,0.8,0.3,0.7-0.2c-0.3-1.2-1.5-1.8-2.7-1.4c-1.5,0.6-2.2,2.5-2.7,3.9
					c-1.4,4.3-1.4,9.2-0.7,13.6C859.7,117.5,860.4,117.3,860.3,116.9L860.3,116.9z"/>
			</g>
		</g>
		<g>
			<g>
				<path class="st1" d="M863.9,104c0.6-1.5,2.3-4.4,4.1-2.4c0.3,0.3,0.8-0.2,0.5-0.5c-0.8-0.9-2.1-1.1-3.1-0.4
					c-1.2,0.7-1.7,2-2.2,3.2C863,104.2,863.7,104.4,863.9,104L863.9,104z"/>
			</g>
		</g>
		<g>
			<g>
				<path class="st1" d="M867.1,104.6c0-0.9,0.4-2,1.3-2.4c0.8-0.4,1.7-0.2,2.2,0.5c0.3,0.4,0.8-0.1,0.5-0.5c-0.7-0.9-2-1.1-3-0.6
					c-1.2,0.6-1.7,1.9-1.8,3.1C866.3,105.1,867,105.1,867.1,104.6L867.1,104.6z"/>
			</g>
		</g>
		<g>
			<g>
				<path class="st1" d="M869.2,104.9c0.4-1.7,2.3-3.2,3.9-1.8c0.4,0.3,0.9-0.2,0.5-0.5c-2.1-1.7-4.6-0.1-5.2,2.2
					C868.4,105.1,869.1,105.3,869.2,104.9L869.2,104.9z"/>
			</g>
		</g>
		<g>
			<g>
				<path class="st1" d="M873,102.9c0.8,1.1-1,1.8-1.6,2.3c-0.5,0.4-0.8,1-1,1.6c-0.6,1.7-0.9,3.6-1,5.4c0,0.5,0.7,0.5,0.7,0
					c0.1-1.3,0.3-2.6,0.6-3.9c0.1-0.4,0.2-0.8,0.3-1.3c0.3-0.9,0.8-1.2,1.5-1.7c0.9-0.6,1.8-1.7,1-2.8
					C873.4,102.1,872.8,102.5,873,102.9L873,102.9z"/>
			</g>
		</g>
		<g>
			<g>
				<path class="st1" d="M859.4,116.1c0.4,1.7,0.9,3.4,1.5,5c0.2,0.4,0.9,0.2,0.7-0.2c-0.6-1.6-1.1-3.3-1.5-5
					C860,115.4,859.3,115.6,859.4,116.1L859.4,116.1z"/>
			</g>
		</g>
		<g>
			<g>
				<path class="st1" d="M860.8,121.6c0.9,8.6,3.1,17.4,8.8,24.1c4.6,5.3,11.9,9.4,19.1,8c3.4-0.6,6.5-2.3,9-4.7
					c0.3-0.3-0.2-0.9-0.5-0.5c-4.9,4.7-12,6-18.3,3.2c-6.7-3.1-11.5-8.8-14.1-15.7c-1.8-4.6-2.7-9.5-3.2-14.4
					C861.5,121.1,860.7,121.1,860.8,121.6L860.8,121.6z"/>
			</g>
		</g>
	</g>
</g>
</svg>
