<?xml version="1.0" encoding="utf-8"?>
<!-- Generator: Adobe Illustrator 23.0.5, SVG Export Plug-In . SVG Version: 6.00 Build 0)  -->
<svg version="1.1" id="Layer_1" xmlns="http://www.w3.org/2000/svg" xmlns:xlink="http://www.w3.org/1999/xlink" x="0px" y="0px"
	 viewBox="0 0 48 48" style="enable-background:new 0 0 48 48;" xml:space="preserve">
<style type="text/css">
	.st0{fill:#FFD550;}
</style>
<path class="st0" d="M23,38.9c-0.3-0.3-0.4-0.6-0.4-1c0-0.4,0.1-0.8,0.4-1l11.3-11.3H9.5c-0.4,0-0.8-0.1-1.1-0.4
	C8.1,24.8,8,24.4,8,24s0.1-0.8,0.4-1.1c0.3-0.3,0.6-0.4,1.1-0.4h24.8L23,11.2c-0.3-0.3-0.4-0.6-0.4-1.1s0.1-0.8,0.4-1.1
	s0.6-0.4,1-0.4s0.8,0.1,1,0.4L38.9,23c0.2,0.2,0.3,0.3,0.3,0.5c0.1,0.2,0.1,0.4,0.1,0.5c0,0.2,0,0.3-0.1,0.5
	c-0.1,0.2-0.2,0.4-0.3,0.5L25,38.9c-0.3,0.3-0.6,0.4-1,0.4C23.6,39.3,23.2,39.2,23,38.9z"/>
</svg>
