<?xml version="1.0" encoding="utf-8"?>
<!-- Generator: Adobe Illustrator 23.0.5, SVG Export Plug-In . SVG Version: 6.00 Build 0)  -->
<svg version="1.1" id="Layer_1" xmlns="http://www.w3.org/2000/svg" xmlns:xlink="http://www.w3.org/1999/xlink" x="0px" y="0px"
	 viewBox="0 0 1080 1080" style="enable-background:new 0 0 1080 1080;" xml:space="preserve">
<style type="text/css">
	.st0{display:none;fill:#FFFFFF;}
	.st1{fill:#00473C;}
</style>
<desc>Created with Fabric.js 5.2.4</desc>
<g transform="matrix(1 0 0 1 540 540)">
	<rect x="-540" y="-540" vector-effect="non-scaling-stroke" class="st0" width="1080" height="1080"/>
</g>
<g transform="matrix(1 0 0 1 540 540)">
</g>
<g transform="matrix(6.67 0 0 6.67 540 540)">
	<path class="st1" d="M69.8-8.9h-3.3V6.4h3.3V-4.6c0.9-1.3,2.4-2.1,4.1-2.1c2.3,0,3.9,1.4,3.9,3.7v9.3H81v-10c0-3.3-2.4-5.5-6-5.5
		c-2.2,0-4.1,0.9-5.3,2.5L69.8-8.9L69.8-8.9z M56.4-6.8c2.4,0,4,1.4,4.5,3.9H52C52.5-5.4,54.1-6.8,56.4-6.8z M56.5,6.7
		c3.7,0,6.4-2,7.4-5.2h-3.3c-0.6,1.7-2.3,2.9-4.1,2.8c-2.7,0-4.5-1.8-4.6-5h12.4v-0.6c0-5-3.4-7.9-7.8-7.9c-4.6,0-8,3.1-8,7.9
		C48.5,3.6,51.8,6.7,56.5,6.7z M38.6-6.8c2.3,0,4,1.4,4.5,3.9h-8.9C34.7-5.4,36.3-6.8,38.6-6.8z M38.7,6.7c3.7,0,6.4-2,7.4-5.2h-3.3
		c-0.6,1.7-2.3,2.8-4.1,2.8c-2.7,0-4.5-1.8-4.6-5h12.4v-0.6c0-5-3.4-7.9-7.8-7.9c-4.6,0-8,3.1-8,7.9C30.7,3.6,34,6.7,38.7,6.7z
		 M25-8.9h-3.3V6.4H25V-4.1c1-1.7,3.1-2.4,5.2-2.1v-3.1c-2.3-0.1-4.1,0.9-5.2,2.8L25-8.9L25-8.9z M11.2,1.6c-2.5,0-4.4-1.5-4.4-4.1
		c0-2.7,1.8-4.3,4.4-4.3c2.6,0,4.4,1.5,4.4,4.3C15.6,0.2,13.7,1.6,11.2,1.6L11.2,1.6z M7.1,6.4H3.8c0.8,3.7,3.9,5.4,8.1,5.4
		c4.2,0,7-1.9,7-4.8c0-2.3-1.7-3.3-4.2-4c2.5-0.6,4.2-2.9,4.1-5.5c0-1.5-0.5-2.8-1.4-3.8c0.7-0.2,1.5-0.2,2.3-0.1v-2.8
		c-1.4-0.1-2.8,0.5-3.8,1.5c-1.4-0.9-3.1-1.4-4.8-1.4c-4.4,0-7.6,2.7-7.6,6.6c0,5.1,4.2,6.3,8.3,7.2c3.2,0.7,3.9,1.5,3.9,2.5
		c0,1.2-0.9,2.2-3.8,2.2C9.4,9.4,7.7,8.5,7.1,6.4z M-2.2,2.1v-8.5h4.8v-2.5h-4.8v-2.9h-3.3v2.9h-3.9v2.5h3.9v9.1
		c0,2.5,1.3,3.8,4.8,3.8c1,0,2.1-0.1,3.4-0.5V3.6C1.5,3.9,0.6,4-0.1,4C-1.9,4-2.2,3.3-2.2,2.1L-2.2,2.1z M-17.6-6.8
		c2.4,0,4,1.4,4.5,3.9H-22C-21.6-5.4-19.9-6.8-17.6-6.8L-17.6-6.8z M-17.6,6.7c3.7,0,6.4-2,7.4-5.2h-3.3c-0.6,1.7-2.3,2.9-4.1,2.8
		c-2.7,0-4.5-1.8-4.6-5h12.4v-0.6c0-5-3.5-7.9-7.8-7.9c-4.6,0-8,3.1-8,7.9C-25.5,3.6-22.2,6.7-17.6,6.7z M-35.4-6.8
		c2.3,0,4,1.4,4.5,3.9h-8.9C-39.4-5.4-37.7-6.8-35.4-6.8L-35.4-6.8z M-35.4,6.7c3.7,0,6.4-2,7.4-5.2h-3.3c-0.6,1.7-2.3,2.9-4.1,2.8
		c-2.7,0-4.5-1.8-4.6-5h12.5v-0.6c0-5-3.5-7.9-7.8-7.9c-4.6,0-8,3.1-8,7.9C-43.3,3.6-40,6.7-35.4,6.7z M-51.5,6.4h3.4l4.3-15.3H-47
		l-2.9,11.3l-3.3-11.3h-2.9l-3.3,11.1l-2.9-11.1h-3.3l4.3,15.3h3.4l3.1-11L-51.5,6.4z M-73.1,6.7c4.1,0,6.9-2,6.9-4.8
		c0-6-11.3-3.4-11.3-6.9c0-1.1,1.2-1.9,3.4-1.9c2.4,0,4,1,4.6,3.1h3.1c-0.7-3.5-3.5-5.4-7.7-5.4c-4.1,0-6.7,1.8-6.7,4.6
		c0,5.9,11.3,3.2,11.3,6.8c0,1.2-1.1,2.1-3.7,2.1s-4.2-1.1-4.7-3.4H-81C-80.3,4.8-77.4,6.7-73.1,6.7z"/>
</g>
</svg>
