<svg id="Layer_1" data-name="Layer 1" xmlns="http://www.w3.org/2000/svg" xmlns:xlink="http://www.w3.org/1999/xlink" viewBox="0 0 509.57 144.87"><defs><style>.cls-1{fill:none;}.cls-2{fill:url(#Degradado_sin_nombre_3);}.cls-3{clip-path:url(#clip-path);}.cls-4{opacity:0.26;}.cls-5{fill:#fc5675;}.cls-6{font-size:103.19px;font-family:Montserrat-Bold, Montserrat;font-weight:700;}.cls-6,.cls-7{fill:#223663;}.cls-7{font-size:22.43px;font-family:Montserrat-SemiBold, Montserrat;font-weight:600;letter-spacing:0.19em;}.cls-8{letter-spacing:0.18em;}.cls-9{letter-spacing:0.19em;}.cls-10{letter-spacing:0.19em;}.cls-11{letter-spacing:0.2em;}.cls-12{letter-spacing:0.18em;}.cls-13{letter-spacing:0.2em;}</style><linearGradient id="Degradado_sin_nombre_3" x1="58.21" y1="143.46" x2="60.82" y2="-23.21" gradientUnits="userSpaceOnUse"><stop offset="0" stop-color="#e55f72"/><stop offset="1" stop-color="#2b479b"/></linearGradient><clipPath id="clip-path" transform="translate(13.74 4.74)"><path class="cls-1" d="M100.48,6.49H18.4A14.23,14.23,0,0,0,4.17,20.72v59C4.24,92.92,20.42,99.33,29.7,89.93L62.51,56.69l-22-13.53,5.53-5.53,26.36,8.72L83.1,35.23a5.2,5.2,0,0,1,6.59-.87,5.09,5.09,0,0,1,.73,7.93L79.17,53.09l8.72,26.36L82.36,85,68.83,63,41.2,91.7c-15.47,16.06-4.33,43,18,43.2h.5a55.5,55.5,0,0,0,55.5-55.51V21.18A14.69,14.69,0,0,0,100.48,6.49Z"/></clipPath></defs><title>Unifylogo-01</title><path class="cls-2" d="M100.48,6.49H18.4A14.23,14.23,0,0,0,4.17,20.72v59C4.24,92.92,20.42,99.33,29.7,89.93L62.51,56.69l-22-13.53,5.53-5.53,26.36,8.72L83.1,35.23a5.2,5.2,0,0,1,6.59-.87,5.09,5.09,0,0,1,.73,7.93L79.17,53.09l8.72,26.36L82.36,85,68.83,63,41.2,91.7c-15.47,16.06-4.33,43,18,43.2h.5a55.5,55.5,0,0,0,55.5-55.51V21.18A14.69,14.69,0,0,0,100.48,6.49Z" transform="translate(13.74 4.74)"/><g class="cls-3"><g class="cls-4"><path class="cls-5" d="M53,99.94a7.23,7.23,0,0,0-2.18-.75l-1.44-.31L45.18,98c-.55-.12-1.21-.34-1.31-.9a2.4,2.4,0,0,1,.17-1c.08-.32,0-.74-.31-.84a3.77,3.77,0,0,0-2.19-1.86,20.87,20.87,0,0,1-2.66-1.14,4.73,4.73,0,0,1-1.74-1.94c-.58-1.22-2.62-1.17-4-1a10.51,10.51,0,0,0-1.65.34l-3.21.86-.34.08h-.05l-.28,0a3.73,3.73,0,0,1-2.26-.34h0a2.7,2.7,0,0,1-.86-.6,2.31,2.31,0,0,1-.58-1.45,10.41,10.41,0,0,1,0-1.58.94.94,0,0,0-.83-.87,11.63,11.63,0,0,0-1.32,0,1.12,1.12,0,0,1-1.05-.65,1.27,1.27,0,0,1,.08-.79c.21-.65.31-1.48.87-1.87.34-.22.74-.55.64-.94a.59.59,0,0,0-.53-.41,1.14,1.14,0,0,0-.67.15c-1.1.55-1.76,1.92-3,2.08a2.33,2.33,0,0,1-2.31-1.67,8.31,8.31,0,0,1-.22-3.11,2.65,2.65,0,0,1,1.92-2.4,8.59,8.59,0,0,1,1.6-.16,5.53,5.53,0,0,0,1.48-.55,2.46,2.46,0,0,1,2.19.27c1,.68,1.33,2,2,2.93.19.27.48.54.79.45a.58.58,0,0,0,.38-.57c0-.25,0-.58,0-.82a10.07,10.07,0,0,1,0-2,3.31,3.31,0,0,1,.78-1.79c.72-.79,2-1,2.23-2.06A3.48,3.48,0,0,1,30.63,70a13.44,13.44,0,0,0,2.07-1.49,7.22,7.22,0,0,0,1.11-1.8A3.12,3.12,0,0,1,36.08,65c.68-.1,1.5,0,1.92-.57A1.35,1.35,0,0,0,38,63a8.52,8.52,0,0,0-1-1.21,1.93,1.93,0,0,1-.58-1.44,1.64,1.64,0,0,1,1-1.17,3.87,3.87,0,0,1,1.55-.27,9.48,9.48,0,0,0,2.82-.24,2.25,2.25,0,0,0,1.69-2.05c0-.9-.8-1.56-1.44-2.19a3.86,3.86,0,0,1-.71-1l0,0s0-.07-.05-.1a1,1,0,0,0,0-.1,4,4,0,0,1-.26-2.26,1,1,0,0,0-.27-.92c-.33-.23-.79,0-1.09.27s-.61.61-1,.6-.84-.54-.88-1,.1-1,.07-1.49c-.05-.88-.86-1.42-1.53-2a1.63,1.63,0,0,0-1.76-.29,2.45,2.45,0,0,0-.86,1,6.2,6.2,0,0,0-1,2.52c0,.65.11,1.31,0,2a2.51,2.51,0,0,1-.34,1h0a5.53,5.53,0,0,0-.78,1.65A7.08,7.08,0,0,1,31.08,56a1.1,1.1,0,0,1-.44.64.81.81,0,0,1-1-.38,2.83,2.83,0,0,1-.28-1.08,8.46,8.46,0,0,0-4.46-6.13,2.15,2.15,0,0,1-.79-2.68,5.89,5.89,0,0,1,2-2.28c1.54-1.21,3.15-2.19,4.73-3.34l1.9-1.39a3.51,3.51,0,0,0,1.4-1.56,8.18,8.18,0,0,0,.2-1.1,1.34,1.34,0,0,1,.58-.93c.57-.29,1.22.16,1.66.62a12.34,12.34,0,0,1,1.53,2.31h0A1.54,1.54,0,0,1,37.69,41h0l-2.3,1.26c-.3.16-.66.44-.56.78s.59.36,1,.41a2.4,2.4,0,0,1,1.57,1,5.22,5.22,0,0,1,1,1.71,1.08,1.08,0,0,0,1.23.75,1.48,1.48,0,0,0,1.11-1,2.46,2.46,0,0,0-.09-1.56c-.18-.5-.17-1.14-.58-1.49a.46.46,0,0,1,.18-.75.7.7,0,0,1,.64.25c.17.18.29.4.47.56a1.23,1.23,0,0,0,1.18.19c.2-.08.6-.37.36-1.14h0L42,39.34c-.28-.84-.56-1.69-.83-2.53A3,3,0,0,0,40,35.11a8.45,8.45,0,0,1-2.92-3,9,9,0,0,0-1-1.58c-.41-.46-1.24-1.2-1.75-.85a5.32,5.32,0,0,0-2.06,2.74,2.17,2.17,0,0,0-.09,1.33,4.85,4.85,0,0,0,.75,1.17,1.46,1.46,0,0,1,.1,1.32,3.39,3.39,0,0,1-.52,1,1.08,1.08,0,0,1-1,.39c-.46-.1-.72-.59-.87-1a5.46,5.46,0,0,1-.16-2.13l.3-3.22a1.64,1.64,0,0,1,.28-.92,2,2,0,0,1,1.27-.49c.45-.09,1-.36,1-.83a.71.71,0,0,0-.4-.62,1.17,1.17,0,0,0-.76-.08,3,3,0,0,0-1.82,1.5c-.71,1.1-.75,2.5-1.36,3.66a4,4,0,0,0-.31,1.85,4.66,4.66,0,0,1-.25,1.86,1.51,1.51,0,0,1-1.46,1c-.58-.07-1-.58-1.43-1-.65-.58-1.6-.6-2.39-1a1.2,1.2,0,0,0-1.08.22A1.42,1.42,0,0,1,21,36.7c-.32-.09-.52-.41-.74-.67-.6-.68-1.62-.61-2.5-.82a1.21,1.21,0,0,1-.5-.19.42.42,0,0,1-.16-.47.58.58,0,0,1,.42-.28A1,1,0,0,0,18,34.1a.52.52,0,0,0,.08-.57,5.07,5.07,0,0,0-1.46-1.35h0a5.94,5.94,0,0,1-.77-.49h0l0,0h0a1.54,1.54,0,0,0-.67-.28,1.82,1.82,0,0,1-1-.37,3.8,3.8,0,0,1-.47-.92,1.73,1.73,0,0,0-1.24-.78,3.5,3.5,0,0,0-1.54-.07,17.46,17.46,0,0,1-2.24.56,2.54,2.54,0,0,1-1,0c-.32-.07-.57-.46-.83-.67-1.78-1.42-3.75-2.79-4.91-4.74A3.38,3.38,0,0,0,.05,22.91a3,3,0,0,0-2.46.1l-2,1.48a2.69,2.69,0,0,1-1,.52c-.4.09-.86,0-1.19.24a1,1,0,0,0-.36.71,2,2,0,0,0,0,.85,3.94,3.94,0,0,1,.22,2.89.87.87,0,0,1-1,.34c-.37-.09-.7-.31-1.06-.43a2,2,0,0,0-1.7.22,2.29,2.29,0,0,0-.79,1.43.92.92,0,0,0,.44,1.06c.64.32,1.52-.26,2.2-.07.19-.07.4.12.41.33a.83.83,0,0,1-.24.54,7.56,7.56,0,0,1-2.66,1.75,4.43,4.43,0,0,0-2.44,2,2.41,2.41,0,0,0,.13,2,6.34,6.34,0,0,1,.37.62c.09.22.24.56.08.74a.79.79,0,0,0-.16.79.7.7,0,0,0,.65.4,2.25,2.25,0,0,1,.73.14.74.74,0,0,1,.45.54c0,.35-.27.64-.54.86l-1.62,1.3c-.15.13-.32.29-.3.49a.39.39,0,0,0,.39.32,1.23,1.23,0,0,0,.53-.11A15,15,0,0,1-10.43,44,2.21,2.21,0,0,0-9,42.6c.27-.64.41-1.35.73-2a3.55,3.55,0,0,1,1.41-1.44A1,1,0,0,1-6.08,39a.43.43,0,0,1,.23.62,2.71,2.71,0,0,1-.74.77,1.62,1.62,0,0,0-.63.86c-.07.35.1.61.46.6a1.8,1.8,0,0,0,1.42-.67,2.31,2.31,0,0,1,1.42-.82c1.55,0,2.81,1.57,3.85,2.73A11.67,11.67,0,0,1,2,46a9.19,9.19,0,0,1,.63,6.18,3.28,3.28,0,0,0,.91,3.25,2.6,2.6,0,0,1,.81.91,1.8,1.8,0,0,1-.16,1.22c-.81,2.18-2,4.18-2.25,6.49C1.68,66.2,1.65,68.64,3,70.3c1.52,1.84,2,4.12,2.67,6.4a11.84,11.84,0,0,0,1.43,3c.2.28.45.59.8.61A.59.59,0,0,0,8.45,80a1.24,1.24,0,0,0,0-.69,3.36,3.36,0,0,0-.66-1.42c-.63-1-1.55-2-1.62-3.2l-.06-1.08a.73.73,0,0,1,0-.33.28.28,0,0,1,.24-.19c.11,0,.36.17.3.26a7,7,0,0,0,1.79,3.67A7.38,7.38,0,0,1,10,79.17a11.35,11.35,0,0,0,1.75,4,6.28,6.28,0,0,0,3.51,2.5c1.26.28,2.65.63,3.92.84a3.93,3.93,0,0,1,2.94,2.32,6.57,6.57,0,0,0,1,2.2c.63.62,1.69.57,2.58.66a2,2,0,0,1,1.42.88,2,2,0,0,1,.2,1.66,6.2,6.2,0,0,1-.9,1.44c-.74,1.12-.53,2.5-.76,3.83-.36,2.08.8,4.09,1.92,5.88.89,1.44,1.39,3.19,2.73,4.23A8,8,0,0,1,33,114.91c.28,2,.73,4.38,0,6.26-.91,2.22-1.83,4.64-1.17,6.93.35,1.2,1.1,2.25,1.44,3.45a20.9,20.9,0,0,1,.43,3,4.42,4.42,0,0,0,1.2,2.68c.79.72,1.32,1.72,2.14,2.4a1.87,1.87,0,0,0,1,.53.79.79,0,0,0,.88-.59,1.2,1.2,0,0,0-.15-.61l-1.43-3.17a1.33,1.33,0,0,1,.16-1.2c.2-.4.53-.73.77-1.11a1.37,1.37,0,0,0,.21-1.27c-.18-.41-.66-.65-.79-1.09a1.17,1.17,0,0,1,.32-1c.24-.29.55-.52.77-.82a2,2,0,0,0-.2-2.49,2,2,0,0,1,.67-1.79,6.7,6.7,0,0,1,1.61-1.06,4.16,4.16,0,0,0,1.51-1.17,2,2,0,0,1,.69-1.72c.5-.43,1.09-.74,1.57-1.2,1.31-1.24,1.5-3.24,2.27-4.87a7.14,7.14,0,0,1,3.66-3.5,8.09,8.09,0,0,0,1.16-4,12.08,12.08,0,0,1,.11-2A1.93,1.93,0,0,1,53,104a2.37,2.37,0,0,0,1.2-2.2A2.5,2.5,0,0,0,53,99.94Z" transform="translate(13.74 4.74)"/><path class="cls-5" d="M11.71,27.64a1.94,1.94,0,0,0-.46,1.54,1.89,1.89,0,0,0,.92,1.32,3.08,3.08,0,0,1,.55.33.47.47,0,0,1,.13.58c-.13.22-.46.2-.7.1a1.33,1.33,0,0,0-.74-.18.68.68,0,0,0-.48.62,2,2,0,0,0,.17.82c.18.52.43,1.1,1,1.27.75.26,1.52-.51,2.3-.35a1.9,1.9,0,0,1,1,.66,2.59,2.59,0,0,0,.91.74.8.8,0,0,0,1-.35c.12-.34-.09-.71,0-1.06s.53-.74.87-1.06c.92-.87,1-2.28,1-3.55a1.94,1.94,0,0,0-.07-.72.69.69,0,0,0-.51-.47c-.44-.06-.73.42-1,.77s-.81.84-1.22.7-1-.94-1.29-1.27a3.71,3.71,0,0,0-1.21-.92A1.91,1.91,0,0,0,11.71,27.64Z" transform="translate(13.74 4.74)"/><path class="cls-5" d="M9.38,28.38a.79.79,0,0,0,.65-.3,4.25,4.25,0,0,0,.41-.63A3.81,3.81,0,0,1,12.15,26a4,4,0,0,0,1.62-.83,1.36,1.36,0,0,0-.14-1.85c-.84-.72-2.11,0-2.8.59a6.18,6.18,0,0,0-2,3,1.75,1.75,0,0,0-.08.9A.74.74,0,0,0,9.38,28.38Z" transform="translate(13.74 4.74)"/><path class="cls-5" d="M17.41,81.22c-.21,0-.49.07-.49.28s.16.26.3.32l1.42.69a15.87,15.87,0,0,0,2.08.89,1.29,1.29,0,0,0,.75.06c1.23-.38-.86-1.45-1.21-1.6A7,7,0,0,0,17.41,81.22Z" transform="translate(13.74 4.74)"/><path class="cls-5" d="M23.7,83.78c-.26,0-.57,0-.71.24a.52.52,0,0,0,.09.58,1.11,1.11,0,0,0,.55.28,2.92,2.92,0,0,0,1.25.07c.42-.07,1-.44.59-.88S24.19,83.79,23.7,83.78Z" transform="translate(13.74 4.74)"/><path class="cls-5" d="M63.61,40a2.4,2.4,0,0,0,.32-2.25c-.32-.76-1.16-1.47-.82-2.22.24-.54,1-.65,1.5-.86a3,3,0,0,0,1.81-3.33A10,10,0,0,1,69,22.7a3.94,3.94,0,0,0,.74-.94,1.07,1.07,0,0,0-.08-1.13,1.26,1.26,0,0,0-1.26-.23,5.87,5.87,0,0,1-1.29.35c-.45,0-1-.27-1-.72s.44-.76.79-1.05.62-.88.25-1.15a7.05,7.05,0,0,0-6.41-1.26c-1.35.45-2.61,1.34-4,1.28-.79,0-1.54-.36-2.32-.45a1.9,1.9,0,0,0-2,.88c-1.55,1-3.15,2.51-4.71,3.56A5.22,5.22,0,0,0,45.2,24.5,2.66,2.66,0,0,0,45.87,27a11.23,11.23,0,0,0,1.51,1,2.15,2.15,0,0,1,1,1.44c.16,1.57.87,3.07,1.13,4.63a11.85,11.85,0,0,1,.13,3.31,8.1,8.1,0,0,1-2,4.4A4.34,4.34,0,0,0,47,43.57a2.46,2.46,0,0,0,.15,1.79c.28.51.81.89.93,1.47a3.66,3.66,0,0,1,0,.81,1.08,1.08,0,0,0,.2.77,1.27,1.27,0,0,0,1.11.12c.53-.3,1.14.21,1.5.69s.88,1.05,1.45.87.67-.89.78-1.46a7.3,7.3,0,0,1,3.56-4.41c1.66-1,3.5-1.68,5.18-2.67A5.39,5.39,0,0,0,63.61,40Z" transform="translate(13.74 4.74)"/><path class="cls-5" d="M58.52,52.45c.31-.33.45-.73.82-1s1-.5,1.29-1a.86.86,0,0,0-.06-.85,1.13,1.13,0,0,0-.74-.46c-.93-.15-1.8.71-2.72.54-.5-.1-1-.49-1.47-.27a.86.86,0,0,0-.32,1.08,2.52,2.52,0,0,0,.79.93C56.69,51.92,57.78,53.23,58.52,52.45Z" transform="translate(13.74 4.74)"/><path class="cls-5" d="M163.07,29.67c-.13-.16-.29-.29-.42-.45a2.32,2.32,0,0,1-.35-1.32,3.46,3.46,0,0,0-.2-1.36,1,1,0,0,0-1.11-.62,3.6,3.6,0,0,1-2.13,0c-1-.35-1.63-1.47-2.64-1.85a19,19,0,0,0-2.8-.67,7,7,0,0,0-3.14-.19,2.34,2.34,0,0,0-1.89,2.23.49.49,0,0,1-.28.39,1.15,1.15,0,0,1-.45.16l-2.09.49a3.82,3.82,0,0,1-.89.12,1.12,1.12,0,0,1-.82-.34,15.29,15.29,0,0,0-1.9-1.37.79.79,0,0,0-.54-.24.86.86,0,0,0-.43.23,2.88,2.88,0,0,1-2.14.56A30.81,30.81,0,0,1,134,24.33a3.13,3.13,0,0,0-2,.07.51.51,0,0,0-.32.23.61.61,0,0,0,.12.54,10.81,10.81,0,0,1,.66,1.26.48.48,0,0,1-.12.52,1.47,1.47,0,0,1-.48.29l-2.46,1.05a2.35,2.35,0,0,1-1.36.29,1.61,1.61,0,0,1-1-.63,5.09,5.09,0,0,1-.66-1,1.07,1.07,0,0,0-.66-.53,3,3,0,0,0-.85-.12,3.78,3.78,0,0,1-1.39-.2c-.17-.08-.37.06-.45.23a2.43,2.43,0,0,0-.1.55,1.55,1.55,0,0,1-1,1.08,2.54,2.54,0,0,1-1.52,0,6.43,6.43,0,0,1-1.5-.49,1.4,1.4,0,0,0-1.8.45c-.2.33-.32.78-.7.85s-.68-.38-.64-.76a3.3,3.3,0,0,1,.43-1.07c.62-1.25-.12-2.65-.82-3.86a.87.87,0,0,0-1.26-.2c-.19.17-.31.45-.55.56a.7.7,0,0,1-.77-.2,3.87,3.87,0,0,1-.41-.75,3.73,3.73,0,0,0-1-1.25,1.27,1.27,0,0,0-1.52,0,1.17,1.17,0,0,0-.24,1.22,1.77,1.77,0,0,0,.84,1,.78.78,0,0,1,.33,1,1.42,1.42,0,0,1-.78.76,8.83,8.83,0,0,1-1.06.37c-.93.32-1.47,1.23-2.34,1.7a1.16,1.16,0,0,0-.36,1.75c.16.21.39.36.56.56a.63.63,0,0,1,.12.73.56.56,0,0,1-.52.21c-.19,0-.38-.12-.58-.13a.78.78,0,0,0-.7.49,1.24,1.24,0,0,0,0,.89,2.54,2.54,0,0,0,.43.7,2.25,2.25,0,0,1,.37.68.72.72,0,0,1-.19.72.78.78,0,0,1-.83,0c-.26-.13-.48-.34-.73-.49s-.59-.36-.79-.14a1.77,1.77,0,0,0-.21,1.76c.2.59.55,1.12.76,1.71s.33,1.4-.15,1.79a1,1,0,0,1-1.3-.18,3,3,0,0,1-.63-1.28c-.22-.76-.44-1.51-.67-2.26A2.41,2.41,0,0,0,101,34a.85.85,0,0,0-.72-.39c-.5,0-.77.62-.79,1.13-.07,1.47,1.22,2.85,1,4.3a.63.63,0,0,1-.7.44,1.55,1.55,0,0,1-.79-.41,3.25,3.25,0,0,0-.73-.55.81.81,0,0,0-.86.08c-.28.26-.11.63-.11,1a.83.83,0,0,1-.59.66,6.44,6.44,0,0,0-.88.28,7.21,7.21,0,0,1-.76.51c-.38.16-1,0-1-.4a.64.64,0,0,0-.59-.6,1.11,1.11,0,0,0-.9.65c-.2.33-.35.76-.69,1a.61.61,0,0,1-.62.34c-.26,0-.5-.09-.75-.1a.81.81,0,0,0-.64.19.6.6,0,0,0,0,.74,1.87,1.87,0,0,1,.12.56.59.59,0,0,1-.22.51,1,1,0,0,1-1,0,.86.86,0,0,0-1,.5,9.39,9.39,0,0,0-.35,1.21c-.14.4-.46.81-.88.8s-.74-.42-1-.79l-.82-1.31a.89.89,0,0,1-.19-.5.66.66,0,0,1,.58-.58,2.38,2.38,0,0,1,.88.06,1.36,1.36,0,0,0,.87-.07,1,1,0,0,0,.3-1.38,1.53,1.53,0,0,0-1-1,6,6,0,0,1-3.61-1.66,4.17,4.17,0,0,0-.93-1.07,1.63,1.63,0,0,0-1.35-.07c-.44.16-.77.56-1.21.72a10,10,0,0,0-4.39,3.86,11.15,11.15,0,0,0-1.2,2.94,4.47,4.47,0,0,1-2,2.53,1.9,1.9,0,0,0-.49.3.62.62,0,0,0-.21.52,3.54,3.54,0,0,0,.23.53,1.3,1.3,0,0,1,0,.59,14.72,14.72,0,0,0-.08,1.49,1,1,0,0,0,.24.72.67.67,0,0,0,.7.22c.39-.14.54-.65.92-.81a.85.85,0,0,1,1,.55c.16.39,0,.84.13,1.26s.19.71.29,1.07a1,1,0,0,0,.44.71,1,1,0,0,0,.78-.14,3.56,3.56,0,0,0,1-.69,1.57,1.57,0,0,0,.43-1.17c-.25-2.24-1-4.92.43-6.68a9.38,9.38,0,0,1,1-1A2.93,2.93,0,0,1,79,45a1.23,1.23,0,0,1,.94-.09.79.79,0,0,1,.56.71,1.37,1.37,0,0,1-.39.81c-.33.4-.56.84-.92,1.2A1.55,1.55,0,0,0,79,49.48a1.86,1.86,0,0,0,1.77.64,5.81,5.81,0,0,1,1.9.17c.2.05.45.16.46.38s-.22.35-.43.4a6.89,6.89,0,0,0-1.37.24,1.27,1.27,0,0,0-.63,1.56c.13.3-.18.61-.49.71a3.07,3.07,0,0,0-.94.27c-.49.33-.44,1.06-.65,1.61a2.22,2.22,0,0,1-1.89,1.29,7.59,7.59,0,0,1-2.42-.2A1.68,1.68,0,0,1,73,55.22a2.57,2.57,0,0,0-.08-.47.43.43,0,0,0-.34-.3.41.41,0,0,0-.38.38,1.33,1.33,0,0,0,.13.58,1.65,1.65,0,0,1,.23.85,1.17,1.17,0,0,1-.51.85,4.85,4.85,0,0,1-.9.48,5.38,5.38,0,0,0-2.86,2.65,1.7,1.7,0,0,1-1.1.8l-1.43.52c-.42.16-.9.38-1,.82a1.14,1.14,0,0,0,.53,1,2.65,2.65,0,0,1,.84.86,1,1,0,0,1-.09.94,1,1,0,0,1-.84.42,5,5,0,0,0-1.92.28,2.89,2.89,0,0,0-1.4,2,2.75,2.75,0,0,0,3.94,3.19c1.8-1,2.1-3.63,3.86-4.67a5.76,5.76,0,0,1,3.06-.51c1.76,0,2.87,2.12,3.34,3.81.08.3.18.64.45.76a.64.64,0,0,0,.67-.15,2,2,0,0,0,.4-.59,1.72,1.72,0,0,0,.27-1.13c-.12-.55-.71-.83-1.19-1.11A5.27,5.27,0,0,1,75.07,66a.8.8,0,0,1-.17-.78.56.56,0,0,1,.64-.23,1.65,1.65,0,0,1,.62.37,9.71,9.71,0,0,1,3.57,5.07,2.42,2.42,0,0,0,.24.7.69.69,0,0,0,.62.35.71.71,0,0,0,.53-.74,3.39,3.39,0,0,0-.28-1,1.22,1.22,0,0,1,0-1,.86.86,0,0,1,1,0,2.43,2.43,0,0,1,.68.81l1.34,2.18a1.45,1.45,0,0,0,1.12.72,5,5,0,0,0,1.44-.17,2.77,2.77,0,0,1,1.43,0,1.58,1.58,0,0,1,1,1.49A1.61,1.61,0,0,1,88,75.3a3.87,3.87,0,0,1-1.73.23l-2.82-.07a6.62,6.62,0,0,1-1.89-.24c-.6-.19-1.22-.57-1.81-.34a1.93,1.93,0,0,0-.84.79,1.76,1.76,0,0,1-.9.72c-.38.08-.85-.23-.77-.61A3.17,3.17,0,0,0,75,74.49a1.35,1.35,0,0,1-.77-.21C73.9,74,74,73.46,74,73a2,2,0,0,0-1.23-1.82,4.82,4.82,0,0,0-3.26.14,19.86,19.86,0,0,1-3.15,1,10.39,10.39,0,0,0-1.36.21,1.53,1.53,0,0,0-1,.84c-.78,2.12-2.85,3.65-4.19,5.47a15.47,15.47,0,0,0-2.3,3.84,8.89,8.89,0,0,0-.28,2.25l-.12,1.49a4.73,4.73,0,0,0,0,.92,2.62,2.62,0,0,0,.59,1.46c1,.27,1.49,1.51,1.81,2.47A5.33,5.33,0,0,0,60.83,94a3.08,3.08,0,0,0,2.49.5,9.15,9.15,0,0,0,2.42-1c1.77-.92,4.05,0,5.78,1a6.62,6.62,0,0,1,.93.54c.41.33.86.74.85,1.26a3.93,3.93,0,0,1-.45,1.16,1.62,1.62,0,0,0,.64,1.86c1.82,1.14,2.45,3.89,1.72,5.91a22.57,22.57,0,0,0-.9,2.17,1.93,1.93,0,0,0,.61,2.12c.87.56,1,1.72,1.24,2.74.15.84.09,1.7.2,2.55a3.15,3.15,0,0,0,1.09,2.23c1,.74,0,2.67.76,3.65a2.57,2.57,0,0,0,2.1.76,6.86,6.86,0,0,0,4.75-2,5.78,5.78,0,0,0,1.66-2.1,5.69,5.69,0,0,1,.53-1.65,5.88,5.88,0,0,1,1.37-1.09c.46-.35.84-1,.57-1.5a3.16,3.16,0,0,1,.44-3.11,14.48,14.48,0,0,1,1.91-1.75,2.33,2.33,0,0,0,.83-2.31,9.56,9.56,0,0,1-.24-5.43,6,6,0,0,1,3.27-4.16A5.87,5.87,0,0,0,98,93.86a3.09,3.09,0,0,0,0-3.47,3.22,3.22,0,0,0-1.87-.89A6.36,6.36,0,0,1,94.22,89a2.37,2.37,0,0,1-1.14-1.31c-.14-.4-.6-.57-.9-.87a5.25,5.25,0,0,1-.77-1.15l-1.14-2.11C89.47,82.1,88.8,80.48,88,79a1.73,1.73,0,0,1-.26-.74.6.6,0,0,1,.39-.61c.31-.07.58.19.78.43A27.38,27.38,0,0,1,93,84.71a13.28,13.28,0,0,0,1.08,2.54,2.88,2.88,0,0,0,2.32,1.28,4.19,4.19,0,0,0,2-.78l2.8-1.72a7.32,7.32,0,0,0,1.67-1.24,2.49,2.49,0,0,0,.72-1.9,1.52,1.52,0,0,0-1.33-1.38A8.23,8.23,0,0,1,99.31,81a1.84,1.84,0,0,1-1.22-1.06,2.75,2.75,0,0,0-1.17-1.55,2.81,2.81,0,0,1-.48-.35.6.6,0,0,1-.17-.53.52.52,0,0,1,.34-.32,1.07,1.07,0,0,1,.47,0,2,2,0,0,1,.84.22c.55.31.86,1,1.36,1.34a2.54,2.54,0,0,0,1.74.57,4.16,4.16,0,0,1,1-.1,2.37,2.37,0,0,1,1,.58,1.28,1.28,0,0,0,1.1.33c1.08-.34,2.31.17,3.44.26a2.12,2.12,0,0,1,.9.2.74.74,0,0,1,.41.76,1.4,1.4,0,0,0,2.2,1.49c.34-.26.83.09,1,.49a3.23,3.23,0,0,1,.12,1.28,6.62,6.62,0,0,0,.51,2.6,20.19,20.19,0,0,0,1.78,3.46c.22.32.5.68.89.71a1,1,0,0,0,.91-.74,5.24,5.24,0,0,0,.1-1.26A4.51,4.51,0,0,1,118.14,86c.69-.53,1.25-1.23,2-1.74a1.67,1.67,0,0,0,.74-.84c.08-.31,0-.68.17-.93a.66.66,0,0,1,.59-.23,1.77,1.77,0,0,1,.63.19,5.35,5.35,0,0,1,1.87,1.14,2.51,2.51,0,0,1,.7,1.14,8.39,8.39,0,0,0,.29,1.32,1.17,1.17,0,0,0,1,.78c.22,0,.43-.12.65-.12a.93.93,0,0,1,.75.52,2.85,2.85,0,0,1,.24.91c.21,1.55,0,3.21.62,4.63a9.3,9.3,0,0,0,.72,1.22l1.17,1.82a1.58,1.58,0,0,0,.92.6.63.63,0,0,0,.68-.07.49.49,0,0,0,.08-.48,1.45,1.45,0,0,0-.26-.43c-.36-.47-.62-1-.94-1.48l-1-1.46a5.49,5.49,0,0,1-.73-1.32,1.85,1.85,0,0,1,.08-1.46c.15-.26.29-.47.58-.51a.82.82,0,0,1,.77.35c0,.31.4.49.69.58a1.38,1.38,0,0,1,.8.44c.16.25.11.6.28.84a.54.54,0,0,0,1-.33,1.25,1.25,0,0,1,.52-.85,4.4,4.4,0,0,0,.69-.51,1.14,1.14,0,0,0,0-1.5,8,8,0,0,1-2.29-3.64,1.76,1.76,0,0,1,0-.79.78.78,0,0,1,.49-.58,13.4,13.4,0,0,1,2-.27,5.74,5.74,0,0,0,1.24-.21,1.93,1.93,0,0,0,1-.7,7.16,7.16,0,0,1,2.07-1.61,1.24,1.24,0,0,0,.67-1,1.92,1.92,0,0,1,.38-1.26,12.75,12.75,0,0,0,.81-1.12,1.26,1.26,0,0,0,0-1.31,3.28,3.28,0,0,1-.58-1.09c-.07-.31-.06-.64-.1-1a3,3,0,0,0-.92-1.77,1.23,1.23,0,0,1-.11-1.59c.21-.24.54-.4.6-.71a.85.85,0,0,0-.49-.81,1.88,1.88,0,0,1-.75-.64.88.88,0,0,1,.37-1.09A1.39,1.39,0,0,1,140,67a3.45,3.45,0,0,1,1.6,1.38,12.06,12.06,0,0,1,1.08,2.4,1.5,1.5,0,0,0,.41.63.91.91,0,0,0,1.19-.23,1.55,1.55,0,0,0,.23-1.28,4,4,0,0,0-.9-1.5,2.19,2.19,0,0,1-.16-3,6.29,6.29,0,0,1,1.13-1.77c.35-.33.77-.59,1.14-.91a1.83,1.83,0,0,0,.7-1.22c.11-2.15,1-4.16.51-6.26a8.57,8.57,0,0,0-1.18-2.68,3.41,3.41,0,0,0-1.52-1.44,3.59,3.59,0,0,1-.35-.12,1.6,1.6,0,0,1-.95-1.23,1.62,1.62,0,0,1,.57-1.46,1.75,1.75,0,0,0,.48-1.74,2.8,2.8,0,0,1-.12-1.06,1.14,1.14,0,0,1,.55-.69,3.13,3.13,0,0,1,.83-.33c1.21-.36,2.52-.11,3.74-.43a2.38,2.38,0,0,0,1.25-.64,1,1,0,0,0,0-1.28c0-.59-.08-1.21-.13-1.8a2.49,2.49,0,0,1,0-.77.82.82,0,0,1,.48-.56c.59-.18,1.17.59,1.74.38.21.12.42-.15.49-.39s.1-.53.33-.63a.47.47,0,0,1,.59.32,1.33,1.33,0,0,1,0,.74c-.12.54-.24,1.08-.37,1.61-.34,1.54-.69,3.08-1,4.61a3.16,3.16,0,0,0,.52,2.51,40.48,40.48,0,0,1,2.38,4.34.84.84,0,0,0,.4.45c.36.13.72-.29.72-.68a6.32,6.32,0,0,0-.24-1.13c-.14-.93.5-1.78.77-2.68a4.81,4.81,0,0,0-.76-3.94c-.47-.71-1.19-1.24-1.3-2.08a2,2,0,0,1,1.09-2.11,4.31,4.31,0,0,1,1-.2,1.9,1.9,0,0,0,1-.32.81.81,0,0,0,.32-.91,1.92,1.92,0,0,1,.4-1.71,3.18,3.18,0,0,0,.76-1.63c0-.32-.09-.68.12-.92a2.55,2.55,0,0,1,.38-.26.66.66,0,0,0-.15-1.07,1.77,1.77,0,0,1-1-1.06,3.51,3.51,0,0,1,0-1.48A3.48,3.48,0,0,1,159,29.5a1.13,1.13,0,0,1,1.15-.56,2.39,2.39,0,0,1,1.23.49,7,7,0,0,1,.5.68,1.21,1.21,0,0,0,.66.48.57.57,0,0,0,.68-.35A.68.68,0,0,0,163.07,29.67ZM91.28,67.13a1.24,1.24,0,0,1-1.26.66,9.44,9.44,0,0,1-1.47-.33,3.89,3.89,0,0,0-3.25.81c-.38.32-1,.91-1.49.47a1.29,1.29,0,0,1-.2-1.35,7.13,7.13,0,0,1,1.9-3l.64-.59a1.73,1.73,0,0,1,.41-.3c.51-.23,1.1.11,1.57.43l2.12,1.48a3.15,3.15,0,0,1,.82.72A1.14,1.14,0,0,1,91.28,67.13Zm7.24,3.66a1.4,1.4,0,0,1-1.86-.64,6.14,6.14,0,0,1-.5-2.17c-.24-1.48-1.92-3-1.2-4.55a1.46,1.46,0,0,1,1.56-.82,1.24,1.24,0,0,1,1,1.43c-.1.47-.5.82-.65,1.27a2.09,2.09,0,0,0,.61,1.94,10,10,0,0,1,1.37,1.62A1.49,1.49,0,0,1,98.52,70.79Zm4.1-5.43a1.28,1.28,0,0,1-.91.72.92.92,0,0,1-.86-1.07,1.28,1.28,0,0,1,.14-.37l.2-.43.15-.32a1.13,1.13,0,0,1,.51-.62C103.08,62.76,102.94,64.81,102.62,65.36Z" transform="translate(13.74 4.74)"/><path class="cls-5" d="M64.83,55.63a2.32,2.32,0,0,1,.61,1.63c-.11.83-2.59,2.69-.66,2.9,1.36.14,3.58-.88,2.93-2.55-.33-.84-1.21-1.31-1.54-2.14a11.09,11.09,0,0,1-.27-1.63c-.12-.53-.52-1.1-1.07-1.08s-1,.74-.86,1.32A3.9,3.9,0,0,0,64.83,55.63Z" transform="translate(13.74 4.74)"/><path class="cls-5" d="M61.72,58.7a1.38,1.38,0,0,0,.17.53.61.61,0,0,0,.43.3c.31,0,.57-.22.78-.46A3.92,3.92,0,0,0,63.84,58c.36-.91-.27-1.88-1.29-1.38a1.57,1.57,0,0,0-.75.92A2.56,2.56,0,0,0,61.72,58.7Z" transform="translate(13.74 4.74)"/><path class="cls-5" d="M93.25,37.68a.68.68,0,0,0,.76,0c.39-.38-.18-1-.35-1.29a5.41,5.41,0,0,1-.31-1c-.18-.7-.95-1.83-1.8-1.13a1,1,0,0,0-.32.74,1.91,1.91,0,0,0,.18.81A3.73,3.73,0,0,0,93.25,37.68Z" transform="translate(13.74 4.74)"/><path class="cls-5" d="M93.51,32a4.63,4.63,0,0,1,1.77-2.35A3.42,3.42,0,0,0,97,27.45c0-.44-.24-1-.67-.93a1,1,0,0,0-.58.36L92.5,30.17c-.51.53-1.07,1.19-.89,1.91C91.88,33.2,93.18,32.92,93.51,32Z" transform="translate(13.74 4.74)"/><path class="cls-5" d="M148.56,58.09a3.1,3.1,0,0,0,.93,1.61c.18.16.88.61,1.1.29s-.53-1.3-.64-1.59a9.2,9.2,0,0,1-.53-1.93c-.13-.83-.16-1.67-.32-2.49a4,4,0,0,0-1.13-2.2c-.28-.26-.76-.44-1-.16a.64.64,0,0,0-.06.74,3.38,3.38,0,0,0,.5.63,4.57,4.57,0,0,1,.86,2.47A15.37,15.37,0,0,0,148.56,58.09Z" transform="translate(13.74 4.74)"/><path class="cls-5" d="M145,72.86a1.88,1.88,0,0,0-.62,1.18c-.06.95,1.15,1.53,1.55.53.17-.43.1-.73.45-1.14a6,6,0,0,1,1.34-1.17,7.93,7.93,0,0,0,2.35-1.66,4.88,4.88,0,0,0,.52-3.32c0-.36-.13-.81-.48-.89a.58.58,0,0,0-.59.28,1.75,1.75,0,0,0-.24.66,8.39,8.39,0,0,1-3.2,4.72A8.69,8.69,0,0,0,145,72.86Z" transform="translate(13.74 4.74)"/><path class="cls-5" d="M131.85,98.93l-3-3.12a3,3,0,0,0-.95-.76,1,1,0,0,0-1.14.14,1.19,1.19,0,0,0,.21,1.61c.43.42,1,.65,1.48,1a6.29,6.29,0,0,1,1.35,2,4.23,4.23,0,0,0,1.5,1.81c.57.32,1.87.42,2.1-.4S132.31,99.41,131.85,98.93Z" transform="translate(13.74 4.74)"/><path class="cls-5" d="M139,99.79c.2-.39-.16-.89,0-1.3.23-.57,1.2-.48,1.44-1s-.28-1-.28-1.46c0-.72.94-1.29.72-2a1,1,0,0,0-1.26-.4,4.23,4.23,0,0,0-1.12,1,5.62,5.62,0,0,1-2.57,1.36c-.71.19-1.27.41-1.37,1.23-.23,1.95,1.81,2.84,3.37,3C138.3,100.16,138.79,100.15,139,99.79Z" transform="translate(13.74 4.74)"/><path class="cls-5" d="M97.58,106.13a1.18,1.18,0,0,0-.72.81,2.55,2.55,0,0,1-.5,1c-.43.42-1.16.39-1.58.83s-.31,1-.41,1.58a2.19,2.19,0,0,1-.63,1.14,1.44,1.44,0,0,0,0,2.22,1.73,1.73,0,0,0,2.07.17,2.92,2.92,0,0,0,1-2.12,6.75,6.75,0,0,1,.51-2.37,11.68,11.68,0,0,1,.83-1.16,1.86,1.86,0,0,0,.4-1.33A.88.88,0,0,0,97.58,106.13Z" transform="translate(13.74 4.74)"/></g></g><text class="cls-6" transform="translate(172.48 87.71)">UNIFY</text><text class="cls-7" transform="translate(172.47 131.06)">E<tspan class="cls-8" x="19.33" y="0">X</tspan><tspan class="cls-9" x="38.84" y="0">P</tspan><tspan class="cls-10" x="59.39" y="0">L</tspan><tspan class="cls-11" x="77.01" y="0">ORE THE </tspan><tspan class="cls-12" x="222.27" y="0">W</tspan><tspan class="cls-13" x="251.92" y="0">ORLD</tspan></text></svg>